<svg xmlns="http://www.w3.org/2000/svg" width="405.058" height="290.621" viewBox="0 0 405.058 290.621">
  <g id="Group_46" data-name="Group 46" transform="translate(-26 -58.732)">
    <ellipse id="Ellipse_9" data-name="Ellipse 9" cx="46" cy="12" rx="46" ry="12" transform="translate(44 260)" fill="#3fc78d"/>
    <g id="Layer_2" data-name="Layer 2" transform="translate(26 59.498)">
      <g id="Layer_1" data-name="Layer 1" transform="translate(0 0.999)">
        <path id="Path_1" data-name="Path 1" d="M329.395,187.78H311.954a.614.614,0,0,0-.614.614v8.59a.614.614,0,0,0,.614.614h17.441a.614.614,0,0,0,.614-.614v-8.59A.614.614,0,0,0,329.395,187.78Z" transform="translate(-215.824 -130.478)" fill="none" stroke="#aadaf1" stroke-linecap="round" stroke-linejoin="round" stroke-width="2"/>
        <path id="Path_2" data-name="Path 2" d="M298.952,155.71H281.514a.614.614,0,0,0-.614.614v8.59a.614.614,0,0,0,.614.614h17.438a.614.614,0,0,0,.614-.614v-8.59A.614.614,0,0,0,298.952,155.71Z" transform="translate(-194.723 -108.246)" fill="none" stroke="#aadaf1" stroke-linecap="round" stroke-linejoin="round" stroke-width="2"/>
        <path id="Path_3" data-name="Path 3" d="M268.5,187.78H251.064a.614.614,0,0,0-.614.614v8.59a.614.614,0,0,0,.614.614H268.5a.614.614,0,0,0,.614-.614v-8.59A.614.614,0,0,0,268.5,187.78Z" transform="translate(-173.614 -130.478)" fill="none" stroke="#aadaf1" stroke-linecap="round" stroke-linejoin="round" stroke-width="2"/>
        <path id="Path_4" data-name="Path 4" d="M358.882,219.84H341.444a.614.614,0,0,0-.614.614v8.59a.614.614,0,0,0,.614.614h17.438a.614.614,0,0,0,.614-.614v-8.59A.614.614,0,0,0,358.882,219.84Z" transform="translate(-236.267 -152.702)" fill="none" stroke="#aadaf1" stroke-linecap="round" stroke-linejoin="round" stroke-width="2"/>
        <path id="Path_5" data-name="Path 5" d="M302.053,563.85h59.094a1.473,1.473,0,0,1,1.473,1.473h0a1.473,1.473,0,0,1-1.473,1.47H302.053a1.473,1.473,0,0,1-1.473-1.47h0A1.473,1.473,0,0,1,302.053,563.85Z" transform="translate(-208.365 -391.173)" fill="#fff" fill-rule="evenodd"/>
        <path id="Path_6" data-name="Path 6" d="M1.47,592.73h59.1a1.466,1.466,0,0,1,1.47,1.47h0a1.466,1.466,0,0,1-1.47,1.47H1.47A1.47,1.47,0,0,1,0,594.2H0a1.47,1.47,0,0,1,1.47-1.47Z" transform="translate(0 -411.193)" fill="#fff" fill-rule="evenodd"/>
        <path id="Path_7" data-name="Path 7" d="M246,567.59a25.237,25.237,0,0,0-23.163,15.244,9,9,0,0,0-11.225-.058,15.358,15.358,0,0,0-27.516-1.638A11.658,11.658,0,0,0,167,587.093c.27,0,.525-.077.8-.077H284.6a9.452,9.452,0,0,0-15.557-4.439A25.218,25.218,0,0,0,246,567.59Z" transform="translate(-115.766 -393.766)" fill="#dedede" fill-rule="evenodd"/>
        <path id="Path_8" data-name="Path 8" d="M143.05,621.33H276.675a1.473,1.473,0,0,1,1.47,1.473h0a1.473,1.473,0,0,1-1.47,1.469H143.05a1.473,1.473,0,0,1-1.47-1.47h0a1.473,1.473,0,0,1,1.469-1.473Z" transform="translate(-98.145 -431.019)" fill="#dedede" fill-rule="evenodd"/>
        <path id="Path_9" data-name="Path 9" d="M66.887,566.4,63,571.846l8.007,10.035,3.681-6.443Z" transform="translate(-43.672 -392.941)" fill="#f77f89" fill-rule="evenodd"/>
        <path id="Path_10" data-name="Path 10" d="M41.034,576.08l-9.2,10.633,14.459,16.873s9.6-.1,12.627-.1c-.061-3.681-2.737-11.308-10.185-11.014,1.5-2.638,2.571-4.814,2.571-4.814Z" transform="translate(-22.065 -399.651)" fill="#6367fd" fill-rule="evenodd"/>
        <path id="Path_11" data-name="Path 11" d="M46.514,628.545c-4.163-1.285-6.056.39-8.977,3.488-2.04,2.166-6.292,1.982-8.9.739" transform="translate(-19.854 -435.718)" fill="none" stroke="#4c4fd9" stroke-linecap="round" stroke-linejoin="round" stroke-width="2"/>
        <path id="Path_12" data-name="Path 12" d="M55.8,643.053a28.136,28.136,0,0,0,4.237,1.433c3.81-3.375,6.065-11.385,5.35-14.956" transform="translate(-38.681 -436.703)" fill="none" stroke="#4c4fd9" stroke-linecap="round" stroke-linejoin="round" stroke-width="2"/>
        <path id="Path_13" data-name="Path 13" d="M45.786,589.72a6.225,6.225,0,0,1-1.736,10.851" transform="translate(-30.536 -409.106)" fill="none" stroke="#4c4fd9" stroke-linecap="round" stroke-linejoin="round" stroke-width="2"/>
        <path id="Path_14" data-name="Path 14" d="M37.06,604.67l14.232,15.542,10.544-.614" transform="translate(-25.69 -419.47)" fill="none" stroke="#4c4fd9" stroke-linecap="round" stroke-linejoin="round" stroke-width="2"/>
        <path id="Path_15" data-name="Path 15" d="M95.475,411.81l-24.335,44.6,9.317,10.906,43.972-45.374-9.652-13.64Z" transform="translate(-49.315 -283.344)" fill="#f7d167" fill-rule="evenodd"/>
        <path id="Path_16" data-name="Path 16" d="M93.474,556.206,82.62,544.06" transform="translate(-57.273 -377.454)" fill="none" stroke="#ff3274" stroke-linecap="round" stroke-linejoin="round" stroke-width="2"/>
        <path id="Path_17" data-name="Path 17" d="M147.584,408.31l-19.3,3.51-9.817,18.006,16.852-.4,5.495,9.471,16.422-16.941Z" transform="translate(-82.125 -283.351)" fill="#bf9111" fill-rule="evenodd"/>
        <path id="Path_18" data-name="Path 18" d="M84.56,474c9.971-11.68,40.5-47.276,40.5-47.276" transform="translate(-58.618 -296.113)" fill="none" stroke="#ff3274" stroke-linecap="round" stroke-linejoin="round" stroke-width="2"/>
        <path id="Path_19" data-name="Path 19" d="M300.58,605.879l2.939,6.136,13.174-2.384-2.178-7.391Z" transform="translate(-208.365 -417.785)" fill="#f77f89" fill-rule="evenodd"/>
        <path id="Path_20" data-name="Path 20" d="M303.79,624.981l4.5,12.885s26.037-5.215,28.016-5.728c-3.681-8.651-11.235-7.2-14.548-6.372a47.606,47.606,0,0,1-2.221-4.856Z" transform="translate(-210.59 -430.727)" fill="#6367fd" fill-rule="evenodd"/>
        <path id="Path_21" data-name="Path 21" d="M361.093,621.125c.534-1.736,1.773-2.893,2.761-2.586s1.368,1.957.834,3.681-1.773,2.89-2.761,2.586S360.559,622.858,361.093,621.125Z" transform="translate(-250.145 -429.049)" fill="none" stroke="#4c4fd9" stroke-linecap="round" stroke-linejoin="round" stroke-width="2"/>
        <path id="Path_22" data-name="Path 22" d="M372.476,623.118c1.381-1.414,3.1-1.859,3.841-.991s.221,2.718-1.16,4.132-3.1,1.862-3.841.994S371.1,624.542,372.476,623.118Z" transform="translate(-257.165 -431.263)" fill="none" stroke="#4c4fd9" stroke-linecap="round" stroke-linejoin="round" stroke-width="2"/>
        <path id="Path_23" data-name="Path 23" d="M327.321,296.165a20.637,20.637,0,0,0,5.5,3.712c3.252.788,9.2,7.311,9.2,8.716a1.913,1.913,0,0,1-1.927,1.841c-.638.04-2-1.436-2.341-1.856.592,1.35.936,3.178.279,3.752a1.524,1.524,0,0,1-2.246.031c-1.058-1.227-.8-2.62-.9-3.436-.522-1-1.942-3.215-2.543-3.485a1.114,1.114,0,0,0-1.172.841c-.12.672,1.442,2.172,1.617,2.8,0,.795-.868,1.8-1.617,1.6-.853-.227-3.491-2.789-4.074-3.488-.785-.942-1.141-2.994-1.562-3.681a21.413,21.413,0,0,0-2.356-2.454C322.885,300.751,325.692,294.843,327.321,296.165Z" transform="translate(-224.022 -205.477)" fill="#f77f89" fill-rule="evenodd"/>
        <path id="Path_24" data-name="Path 24" d="M276.854,191.226c5.863,4.979,14.637,24.589,20.276,29.415-.589,3.028-9.931,14.306-16.533,11.618C272.326,228.891,272.427,187.468,276.854,191.226Z" transform="translate(-189.846 -132.699)" fill="#3b4161" fill-rule="evenodd"/>
        <path id="Path_25" data-name="Path 25" d="M242.553,275.282l17.383,98.7-18.211,4.3L217.81,315.53l5.939-43.61Z" transform="translate(-150.988 -188.804)" fill="#f7d167" fill-rule="evenodd"/>
        <path id="Path_26" data-name="Path 26" d="M229.11,443.709l-8.55-22.439" transform="translate(-152.894 -292.335)" fill="none" stroke="#ff3274" stroke-linecap="round" stroke-linejoin="round" stroke-width="2"/>
        <path id="Path_27" data-name="Path 27" d="M258.093,412.913,230,324.57" transform="translate(-159.438 -225.302)" fill="none" stroke="#ff3274" stroke-linecap="round" stroke-linejoin="round" stroke-width="2"/>
        <path id="Path_28" data-name="Path 28" d="M258.532,311.42c-2.454,1.028-15.033,3.35-19.892,2.841" transform="translate(-165.428 -216.186)" fill="none" stroke="#ff3274" stroke-linecap="round" stroke-linejoin="round" stroke-width="2"/>
        <path id="Path_29" data-name="Path 29" d="M110.455,234.6l32.983,3.5a3.689,3.689,0,0,1,3.16,4.142l-5.357,50.452a3.671,3.671,0,0,1-3.958,3.375L104.3,292.581a3.689,3.689,0,0,1-3.16-4.142l5.353-50.452A3.7,3.7,0,0,1,110.455,234.6Z" transform="translate(-70.097 -162.922)" fill="#6367fd" fill-rule="evenodd"/>
        <path id="Path_30" data-name="Path 30" d="M135.08,306.418A12.578,12.578,0,1,1,147.658,319,12.578,12.578,0,0,1,135.08,306.418Z" transform="translate(-93.639 -203.999)" fill="none" stroke="#4c4fd9" stroke-linecap="round" stroke-linejoin="round" stroke-width="2"/>
        <path id="Path_31" data-name="Path 31" d="M173.44,38.083c0-3.132,1.764-5.673,3.942-5.673s3.945,2.54,3.945,5.673-1.767,5.673-3.945,5.673S173.44,41.215,173.44,38.083Z" transform="translate(-120.23 -22.774)" fill="#f77f89" fill-rule="evenodd"/>
        <path id="Path_32" data-name="Path 32" d="M180.68,32.13a12.6,12.6,0,1,1,12.6,12.6,12.6,12.6,0,0,1-12.6-12.6Z" transform="translate(-125.249 -13.845)" fill="#f77f89" fill-rule="evenodd"/>
        <path id="Path_33" data-name="Path 33" d="M161.4,318.6a20.886,20.886,0,0,0-.678,13.293c-3.424,5.292-1.825,9.02,6.016,9.955a41.3,41.3,0,0,0,4.114-4.991,36.82,36.82,0,0,0,.479-6.176c.083-1.761-2.5-8.728-1.856-11.857S161.981,316.644,161.4,318.6Z" transform="translate(-110.229 -219.913)" fill="#f77f89" fill-rule="evenodd"/>
        <path id="Path_34" data-name="Path 34" d="M164.926,115.45c-18.125,0-25.025,38.088-23.046,62.459,3.758,2.371,18.757,3.295,23.046,2.169.92-4.28,1.227-22.19,1.433-25.1,10.011.982,8.283,2.531,7.075,15.929a45.786,45.786,0,0,0,17.487-3.43C191.657,158.287,186.257,115.45,164.926,115.45Z" transform="translate(-98.125 -80.338)" fill="#3b4161" fill-rule="evenodd"/>
        <path id="Path_35" data-name="Path 35" d="M135.08,162.92l2.393-22.9a13.582,13.582,0,0,1,14.919-12.1l2.568.267a13.582,13.582,0,0,1,12.1,14.919L164.6,166.654" transform="translate(-93.639 -88.931)" fill="none" stroke="#6367fd" stroke-linecap="round" stroke-linejoin="round" stroke-width="6.77"/>
        <path id="Path_36" data-name="Path 36" d="M193.451,81.312a50.886,50.886,0,0,1,1.025,12.02c2.4,1.417,8.63,2.4,11.624-1.617-1.417-3.427-1.733-5.084-1.614-7.056S192.506,77.253,193.451,81.312Z" transform="translate(-134.066 -55.655)" fill="#f77f89" fill-rule="evenodd"/>
        <path id="Path_37" data-name="Path 37" d="M206.592,64.129c-.267-2.178,1.3-7.3,2.2-8.016,8.421.307,13.649-5.691,14.5-7.332a9.927,9.927,0,0,1,1.684,3.5c.218.834.028,1.42-1.4,2.617C223.211,59.812,218.747,67.62,206.592,64.129Z" transform="translate(-143.191 -34.121)" fill="#fff" fill-rule="evenodd"/>
        <path id="Path_38" data-name="Path 38" d="M193.637,59.494s-7.67-6.277-9.9-6.584" transform="translate(-127.37 -36.984)" fill="none" stroke="#fff" stroke-linecap="round" stroke-linejoin="round" stroke-width="3.05"/>
        <path id="Path_39" data-name="Path 39" d="M236.39,48.469c0-1.092.356-1.979.795-1.979s.795.887.795,1.979-.356,1.979-.795,1.979S236.39,49.561,236.39,48.469Z" transform="translate(-163.868 -32.534)" fill="#cb5d66" fill-rule="evenodd"/>
        <path id="Path_40" data-name="Path 40" d="M165.62,298.427c-2.918.42-18.791-.267-24.04-2.427" transform="translate(-98.145 -205.497)" fill="none" stroke="#737999" stroke-linecap="round" stroke-linejoin="round" stroke-width="2"/>
        <path id="Path_41" data-name="Path 41" d="M209.891,168.554c-.206-6,5.258-25.5-5.541-33.514" transform="translate(-141.657 -93.918)" fill="none" stroke="#737999" stroke-linecap="round" stroke-linejoin="round" stroke-width="2"/>
        <path id="Path_42" data-name="Path 42" d="M209.894,244.17l-5.544,2.375" transform="translate(-141.657 -169.568)" fill="none" stroke="#737999" stroke-linecap="round" stroke-linejoin="round" stroke-width="2"/>
        <path id="Path_43" data-name="Path 43" d="M205.14,242.45l5.317.374" transform="translate(-142.205 -168.375)" fill="none" stroke="#737999" stroke-linecap="round" stroke-linejoin="round" stroke-width="2"/>
        <path id="Path_44" data-name="Path 44" d="M207.71,230.26l4.534,4.074" transform="translate(-143.987 -159.925)" fill="none" stroke="#737999" stroke-linecap="round" stroke-linejoin="round" stroke-width="2"/>
        <path id="Path_45" data-name="Path 45" d="M294.895,228.628c.307-4.016-.54-14.462-3.375-24.948" transform="translate(-202.084 -141.5)" fill="none" stroke="#737999" stroke-linecap="round" stroke-linejoin="round" stroke-width="2"/>
        <path id="Path_46" data-name="Path 46" d="M312.61,271.79c-2.454,4.332-8.283,9.01-10.4,9.94" transform="translate(-209.495 -188.714)" fill="none" stroke="#737999" stroke-linecap="round" stroke-linejoin="round" stroke-width="2"/>
        <path id="Path_47" data-name="Path 47" d="M277.814,300.3c-.258-1.552-1.184-7.317-1.184-7.317" transform="translate(-191.763 -203.403)" fill="none" stroke="#ff3274" stroke-linecap="round" stroke-linejoin="round" stroke-width="2"/>
        <path id="Path_48" data-name="Path 48" d="M306.608,584.6,286.7,587.742" transform="translate(-198.743 -405.557)" fill="none" stroke="#ff3274" stroke-linecap="round" stroke-linejoin="round" stroke-width="2"/>
        <path id="Path_49" data-name="Path 49" d="M308.884,435.643a9.353,9.353,0,0,1-1.061.058,9.609,9.609,0,0,1-2.289-18.941" transform="translate(-206.723 -289.209)" fill="none" stroke="#ff3274" stroke-linecap="round" stroke-linejoin="round" stroke-width="2"/>
        <path id="Path_50" data-name="Path 50" d="M315.67,656.28,343.517,651" transform="translate(-218.826 -451.586)" fill="none" stroke="#4c4fd9" stroke-linecap="round" stroke-linejoin="round" stroke-width="2"/>
        <path id="Path_51" data-name="Path 51" d="M308.41,647.508a6.234,6.234,0,0,1,8.293,7.4" transform="translate(-213.793 -448.868)" fill="none" stroke="#4c4fd9" stroke-linecap="round" stroke-linejoin="round" stroke-width="2"/>
        <path id="Path_52" data-name="Path 52" d="M191.618,84.271A12.033,12.033,0,0,1,184.77,78.5" transform="translate(-128.084 -54.724)" fill="none" stroke="#fff" stroke-linecap="round" stroke-linejoin="round" stroke-width="3.05"/>
        <path id="Path_53" data-name="Path 53" d="M172.7,59.242a4.059,4.059,0,1,1,4.056,4.056A4.059,4.059,0,0,1,172.7,59.242Z" transform="translate(-119.717 -38.558)" fill="#f77f89" fill-rule="evenodd"/>
        <path id="Path_54" data-name="Path 54" d="M189.8,72.29a4.059,4.059,0,0,1-3.881,2.868" transform="translate(-128.882 -50.419)" fill="none" stroke="#cb5d66" stroke-linecap="round" stroke-linejoin="round" stroke-width="2"/>
        <path id="Path_55" data-name="Path 55" d="M175.49,56.963a4.05,4.05,0,0,1,2.35-1.473" transform="translate(-121.651 -38.773)" fill="none" stroke="#cb5d66" stroke-linecap="round" stroke-linejoin="round" stroke-width="2"/>
        <path id="Path_56" data-name="Path 56" d="M183.209,1.349a13.572,13.572,0,0,0-10.179,16.275l26.455-6.1A13.572,13.572,0,0,0,183.209,1.349Z" transform="translate(-119.703 -0.999)" fill="#f2e283" fill-rule="evenodd"/>
        <path id="Path_57" data-name="Path 57" d="M221.754,18.735l19.116-4.406c1.583-.368,3.068.249,3.338,1.368h0c.258,1.123-.816,2.329-2.4,2.7L222.69,22.8c-1.586.365-3.068-.249-3.338-1.371h0C219.091,20.305,220.168,19.1,221.754,18.735Z" transform="translate(-152.03 -10.166)" fill="#f2e283" fill-rule="evenodd"/>
        <path id="Path_58" data-name="Path 58" d="M162.75,384.063a18.749,18.749,0,0,0,2.187-2.813" transform="translate(-112.82 -264.593)" fill="none" stroke="#cb5d66" stroke-linecap="round" stroke-linejoin="round" stroke-width="2"/>
        <path id="Path_59" data-name="Path 59" d="M173.79,384.092a34.08,34.08,0,0,0,4.139-5.452" transform="translate(-120.473 -262.784)" fill="none" stroke="#cb5d66" stroke-linecap="round" stroke-linejoin="round" stroke-width="2"/>
        <path id="Path_60" data-name="Path 60" d="M350.49,326.624c1.933-1.6,4.949,1.681,6.32,3.007" transform="translate(-242.963 -226.426)" fill="none" stroke="#cb5d66" stroke-linecap="round" stroke-linejoin="round" stroke-width="2"/>
        <path id="Path_61" data-name="Path 61" d="M182.665,66.23a1.724,1.724,0,0,1-.7.147,1.749,1.749,0,1,1,.9-3.249" transform="translate(-124.924 -43.896)" fill="none" stroke="#cb5d66" stroke-linecap="round" stroke-linejoin="round" stroke-width="2"/>
        <path id="Path_62" data-name="Path 62" d="M189.836,1.44A13.582,13.582,0,0,0,172.92,13.221" transform="translate(-119.87 -1.005)" fill="none" stroke="#ff3274" stroke-linecap="round" stroke-linejoin="round" stroke-width="2"/>
        <path id="Path_63" data-name="Path 63" d="M239.327,48.78a9.928,9.928,0,0,1,1.684,3.5c.218.834.028,1.42-1.4,2.617A10.785,10.785,0,0,1,229.7,64.933" transform="translate(-159.23 -34.121)" fill="none" stroke="#c9c9c9" stroke-linecap="round" stroke-linejoin="round" stroke-width="2"/>
      </g>
    </g>
    <ellipse id="Ellipse_10" data-name="Ellipse 10" cx="40" cy="14" rx="40" ry="14" transform="translate(245 260)" fill="#3fc78d"/>
    <g id="Layer_2-2" data-name="Layer 2" transform="translate(226 58.732)">
      <g id="Layer_1-2" data-name="Layer 1" transform="translate(0)">
        <path id="Path_132" data-name="Path 132" d="M78.824,647l-1.664,8.463,9.5,4.437,3.995-8.764Z" transform="translate(-54.873 -460.116)" fill-rule="evenodd"/>
        <path id="Path_133" data-name="Path 133" d="M27.83,684.359l4.91-11.34s-5.552-2.545-10.043-4.391a81.006,81.006,0,0,1-21.2-.289c-.962,2.386-1.5,4.012-1.5,4.012Z" transform="translate(0 -475.292)" fill-rule="evenodd"/>
        <path id="Path_134" data-name="Path 134" d="M321.84,633.35l4.09,3.784,8.839-6.5-3.12-4.125Z" transform="translate(-228.877 -445.544)" fill-rule="evenodd"/>
        <path id="Path_135" data-name="Path 135" d="M304.135,637.19l7.432,9.746L295.62,659.451H279.86l.035-4.136s11.173-2.022,11.138-1.99c2.311-2.753,4.188-9.393,4.188-9.393Z" transform="translate(-199.023 -453.139)" fill-rule="evenodd"/>
        <path id="Path_136" data-name="Path 136" d="M131.006,338.14s5.182,38.266,7.019,42.388S157.643,421.7,157.643,421.7l-12.851,9.217s-28.61-43.134-29.907-45.444c-.838-1.479-3.07-10.286-3.07-10.286l-22.033,60-14.6-6.672,15.329-88.826Z" transform="translate(-53.464 -240.469)" fill="#aadaf1" fill-rule="evenodd"/>
        <path id="Path_137" data-name="Path 137" d="M186.473,340.2,175,340.636l.084,2.767Zm-11.184,10.482,1.314,42.842,6.2-16.825Z" transform="translate(-124.452 -241.934)" fill="#73a9c3" fill-rule="evenodd"/>
        <path id="Path_138" data-name="Path 138" d="M180.865,392.714l-8.6-29.994" transform="translate(-122.503 -257.949)" fill="none" stroke="#0097f7" stroke-linecap="round" stroke-linejoin="round" stroke-width="1.7"/>
        <path id="Path_139" data-name="Path 139" d="M273.185,510.329,261.21,488.175c2.34-2.366,3.319-4.893-2.045-1.895-3.977,2.221-4.642,1.467-1.155-2.377,4.694-5.165,3.876-5.872-.739-5.127" transform="translate(-181.875 -340.305)" fill="none" stroke="#0097f7" stroke-linecap="round" stroke-linejoin="round" stroke-width="1.7"/>
        <path id="Path_140" data-name="Path 140" d="M252.114,398.18s-3.859-27.059-4.974-30.39" transform="translate(-175.754 -261.555)" fill="none" stroke="#0097f7" stroke-linecap="round" stroke-linejoin="round" stroke-width="1.7"/>
        <path id="Path_141" data-name="Path 141" d="M126.26,454.973c.425-1.817,2.724-18,4.154-18.394,6.794-1.889,8.021-4.532,1.531-6.383-6.355-1.817-6.332-2.363-.6-4.107,5.864-1.788,4.708-2.735.939-6.1-1.277-1.141,4.581-15.4,4.91-16.788" transform="translate(-89.79 -286.737)" fill="none" stroke="#0097f7" stroke-linecap="round" stroke-linejoin="round" stroke-width="1.7"/>
        <path id="Path_142" data-name="Path 142" d="M283.155,217.987c-.038-2.227.442-6.2-.552-8.582s-7.553-1.358-7.553-1.358S283.19,220.2,283.155,217.987Z" transform="translate(-195.603 -147.797)" fill="#f77f89" fill-rule="evenodd"/>
        <path id="Path_143" data-name="Path 143" d="M141.163,110.15c14.91,0,27.077,7.553,27.195,19a57.274,57.274,0,0,0,1.4,12.351l-13.221,3.287s4.593,31.533,2.981,32.859c-4.795,3.951-38.434,5.274-42.608.973-.367-5.321,2.868-19.5,2.868-19.5s-10.266-24.2-4.7-35.612c5.271-10.817,19.13-12.761,25.274-12.972C140.683,110.528,140.874,110.15,141.163,110.15Z" transform="translate(-80.658 -78.333)" fill="#0097f7" fill-rule="evenodd"/>
        <path id="Path_144" data-name="Path 144" d="M168.859,12.132C168.946,7.022,163.727,0,156.211,0c-5.89,0-11.906,2.8-12.059,7.36-.306-1.883-.6-3.047-.384-4.087-1.271-.064-3.827,3.215-3.827,7.594,0,1.693,1.32,8.088,5.075,8.01S163.1,23.928,163.1,23.928a2.878,2.878,0,0,0,2.213,1.274c1.271-.1,3.677-2.487,3.7-3.8s-1.17-3.677-1.155-4.408S168.77,17.233,168.859,12.132Z" transform="translate(-99.519)" fill="#6a3416" fill-rule="evenodd"/>
        <path id="Path_145" data-name="Path 145" d="M171.319,161.64l-2.649,9.636" transform="translate(-119.95 -114.951)" fill="none" stroke="#000" stroke-linecap="round" stroke-linejoin="round" stroke-width="3.41"/>
        <path id="Path_146" data-name="Path 146" d="M151.92,37.181A11.178,11.178,0,1,1,163.1,48.357,11.178,11.178,0,0,1,151.92,37.181Z" transform="translate(-108.038 -18.49)" fill="#f77f89" fill-rule="evenodd"/>
        <path id="Path_147" data-name="Path 147" d="M150.06,24.4s1.5-.289,3.712-3.559a25.878,25.878,0,0,0,11.155-.67c.049,2.331,1.759,6.147,4.113,5.725s3.319-6.095,3.319-6.095L166.81,14l-8.391.055-5.907,4.162Z" transform="translate(-106.716 -9.956)" fill="#6a3416" fill-rule="evenodd"/>
        <path id="Path_148" data-name="Path 148" d="M161.557,55.9c-.1-.893.176-1.655.624-1.707s.9.627,1,1.516-.176,1.655-.627,1.707S161.669,56.79,161.557,55.9Z" transform="translate(-114.876 -38.538)" fill="#90415b" fill-rule="evenodd"/>
        <path id="Path_149" data-name="Path 149" d="M199.054,72.193c-.289,1.776-.867,10.225.049,12.022-2.042,2.057-8.03,2.943-11.167,2.051a10.747,10.747,0,0,0-1.306-5.794C186.09,79.5,199.334,70.414,199.054,72.193Z" transform="translate(-132.711 -51.176)" fill="#f77f89" fill-rule="evenodd"/>
        <path id="Path_150" data-name="Path 150" d="M187.4,51.149c-.1-.89.176-1.652.624-1.707s.9.627,1,1.519-.173,1.655-.624,1.707S187.5,52.042,187.4,51.149Z" transform="translate(-133.252 -35.159)" fill="#90415b" fill-rule="evenodd"/>
        <path id="Path_151" data-name="Path 151" d="M172.218,61.14a32.393,32.393,0,0,1-.933,5.641c-.179.615.783.843.783.843" transform="translate(-121.794 -43.48)" fill="none" stroke="#90415b" stroke-linecap="round" stroke-linejoin="round" stroke-width="1.7"/>
        <path id="Path_152" data-name="Path 152" d="M153.86,68.214c.058,1.118,2.7,6.883,4.255,7.77s13.287.771,15.982-5.035c-2.213-.344-3.712-2.221-5.462-6.239a48.381,48.381,0,0,1-9.058.038C158.794,64.794,156.91,67.393,153.86,68.214Z" transform="translate(-109.418 -46.019)" fill="#fff" fill-rule="evenodd"/>
        <path id="Path_153" data-name="Path 153" d="M234.93,150.3c6.135-.118,18.3-.867,19.523,4.333s2.383,14.116,1.713,15.338S243,172.743,243,172.743C242.015,170.242,236.562,156.137,234.93,150.3Z" transform="translate(-167.071 -106.814)" fill="#0097f7" fill-rule="evenodd"/>
        <path id="Path_154" data-name="Path 154" d="M192.954,202.436c-3.38.549-23.324-13.348-25.8-13.076s-8.819.029-8.819.029-3.611-13.839,4.093-14.35c.477-.032,3.3,2.478,3.3,2.478a1.557,1.557,0,0,1,1.329.2c1,.815,4.237,4.5,5.858,5.081,2.727.985,24.855,5.17,25.915,6.932S201.062,201.122,192.954,202.436Z" transform="translate(-112.002 -124.479)" fill="#f77f89" fill-rule="evenodd"/>
        <path id="Path_155" data-name="Path 155" d="M91.432,196H106.9a5.368,5.368,0,0,1,4.532,2.958l10.887,24.728a1.949,1.949,0,0,1-1.93,2.955H104.925a5.375,5.375,0,0,1-4.535-2.955L89.506,198.955A1.948,1.948,0,0,1,91.432,196Z" transform="translate(-63.472 -139.386)" fill="#f7d167" fill-rule="evenodd"/>
        <path id="Path_156" data-name="Path 156" d="M93.5,233.156c-.737-1.9-1.262-4.526-.228-6.207s5.014-6.857,6.664-6.953,5.884,4.494,6.337,5.982a10.932,10.932,0,0,1-.422,6.112c-.711,1.392-3.561,4.1-5,4.151S93.94,234.317,93.5,233.156Z" transform="translate(-65.922 -156.45)" fill="#f77f89" fill-rule="evenodd"/>
        <path id="Path_157" data-name="Path 157" d="M87.388,223.523a29.886,29.886,0,0,0-2.444-8.642c-.607-1.5-.159-2.784.867-3.076s4.206,3.9,4.3,7.146S87.59,226.582,87.388,223.523Z" transform="translate(-60.213 -150.615)" fill="#f77f89" fill-rule="evenodd"/>
        <path id="Path_158" data-name="Path 158" d="M93.42,236.041a17.362,17.362,0,0,1,2.909-4.451" transform="translate(-66.436 -164.696)" fill="none" stroke="#81666f" stroke-linecap="round" stroke-linejoin="round" stroke-width="1.7"/>
        <path id="Path_159" data-name="Path 159" d="M107.62,231.368c0-1.649,3.362-6.459,4.622-7.048" transform="translate(-76.534 -159.526)" fill="none" stroke="#905f6f" stroke-linecap="round" stroke-linejoin="round" stroke-width="1.7"/>
        <path id="Path_160" data-name="Path 160" d="M119.05,240.605c.038-.8,2.655-5.159,4.154-6.025" transform="translate(-84.663 -166.822)" fill="none" stroke="#8b5d6c" stroke-linecap="round" stroke-linejoin="round" stroke-width="1.7"/>
        <path id="Path_161" data-name="Path 161" d="M139.585,166.86a24.234,24.234,0,0,0,.139,8.408" transform="translate(-99.051 -118.663)" fill="none" stroke="#aadaf1" stroke-linecap="round" stroke-linejoin="round" stroke-width="1.7"/>
        <path id="Path_162" data-name="Path 162" d="M207.69,191.2l9.749.2" transform="translate(-147.699 -135.972)" fill="none" stroke="#aadaf1" stroke-linecap="round" stroke-linejoin="round" stroke-width="1.7"/>
        <path id="Path_163" data-name="Path 163" d="M187.835,112.2c-.142,1.427-1.834,10.653,3.862,10.653,3.665,0,9.356-8.527,8.455-11.069" transform="translate(-133.336 -79.493)" fill="#f77f89" stroke="#aadaf1" stroke-linecap="round" stroke-linejoin="round" stroke-width="1.7" fill-rule="evenodd"/>
        <path id="Path_164" data-name="Path 164" d="M210.89,49.86a4.258,4.258,0,1,1,4.257,4.255,4.258,4.258,0,0,1-4.257-4.255Z" transform="translate(-149.975 -32.429)" fill="#f77f89" fill-rule="evenodd"/>
        <path id="Path_165" data-name="Path 165" d="M205.16,51.253s2.689-4.91,5.537-5.583" transform="translate(-145.9 -32.478)" fill="none" stroke="#fff" stroke-linecap="round" stroke-linejoin="round" stroke-width="1.7"/>
        <path id="Path_166" data-name="Path 166" d="M223.86,77.59,225.945,74" transform="translate(-159.199 -52.625)" fill="none" stroke="#fff" stroke-linecap="round" stroke-linejoin="round" stroke-width="1.7"/>
        <path id="Path_167" data-name="Path 167" d="M243.573,176.048c-1.632-4.278-3.975-10.557-5.453-15.058" transform="translate(-169.34 -114.488)" fill="none" stroke="#aadaf1" stroke-linecap="round" stroke-linejoin="round" stroke-width="1.7"/>
        <path id="Path_168" data-name="Path 168" d="M155,80.93c.763,2.083,2.689,5.884,3.928,6.589a9.936,9.936,0,0,0,3.969.39" transform="translate(-110.229 -57.554)" fill="none" stroke="#c9c9c9" stroke-linecap="round" stroke-linejoin="round" stroke-width="1.2"/>
        <path id="Path_169" data-name="Path 169" d="M30.631,686.838,2.65,674.81" transform="translate(-1.885 -479.893)" fill="none" stroke="#7c7c7c" stroke-linecap="round" stroke-linejoin="round" stroke-width="1.7"/>
        <path id="Path_170" data-name="Path 170" d="M279.91,677.091l14.948-.517L310.187,664.5" transform="translate(-199.059 -472.561)" fill="none" stroke="#7c7c7c" stroke-linecap="round" stroke-linejoin="round" stroke-width="1.7"/>
      </g>
    </g>
    <g id="Layer_2-3" data-name="Layer 2" transform="translate(224 74.72)">
      <g id="Layer_1-3" data-name="Layer 1" transform="translate(1)">
        <path id="Path_256" data-name="Path 256" d="M452.894,404.889c-21.414-.311-31.979,76.979-30.179,82.534a11.443,11.443,0,0,0,2.641,3.979h18.838c2.845-6.078,6.92-18.454,10.123-32.125l-5.382-3.006,6.8-3.422a171.471,171.471,0,0,0,3.153-21.326L453.6,430.3l2.906-4.229-3.337-.769,5.709-6.186C458.265,412.412,456.5,407.18,452.894,404.889Z" transform="translate(-260.465 -249.228)" fill="#aadaf1" fill-rule="evenodd"/>
        <path id="Path_257" data-name="Path 257" d="M470.176,404.9l-19.5,86.5" transform="translate(-277.8 -249.236)" fill="none" stroke="#72a5bd" stroke-linecap="round" stroke-linejoin="round" stroke-width="2"/>
        <path id="Path_258" data-name="Path 258" d="M378.764,356.79c-26.143,9.742-8,95.517-2.78,104.751h27.657c.038-.073.1-.131.131-.2,3.076-6.255,2.33-48.579-6.005-77.455l-6.874.158,4.69-6.836C391.521,365.99,386.031,357.828,378.764,356.79Z" transform="translate(-225.053 -219.622)" fill="#aadaf1" fill-rule="evenodd"/>
        <path id="Path_259" data-name="Path 259" d="M339.38,629.93h74.968" transform="translate(-209.29 -387.753)" fill="none" stroke="#72a5bd" stroke-linecap="round" stroke-linejoin="round" stroke-width="2"/>
        <path id="Path_260" data-name="Path 260" d="M400.66,356.86l12.66,104.778" transform="translate(-247.01 -219.665)" fill="none" stroke="#72a5bd" stroke-linecap="round" stroke-linejoin="round" stroke-width="2"/>
        <path id="Path_261" data-name="Path 261" d="M382.112,587.6c2.691,1.953,10.838,8.539,11.28,10.326s-4.006,13.694-4.959,14.555-10.4,3.149-10.853,3.76-.088,2.48.361,3.4,14.905-.119,14.905-.119,18.765-18.538,18.531-19.915S390.09,579.23,390.09,579.23,379.429,585.65,382.112,587.6Z" transform="translate(-232.676 -356.545)" fill="#f77f89" fill-rule="evenodd"/>
        <path id="Path_262" data-name="Path 262" d="M402.956,610.12c-.719,4.859-3.264,12.191-11.241,13.6-1.238,3.606-2.76,7.3-3.283,7.774-.953.857-10.4,3.149-10.849,3.76s-.081,2.48.361,3.4,14.9-.119,14.9-.119S411.622,620,411.383,618.628C411.283,618.047,407.308,614.211,402.956,610.12Z" transform="translate(-232.679 -375.559)" fill="#6367fd" fill-rule="evenodd"/>
        <path id="Path_263" data-name="Path 263" d="M77.217,639.714c-.953,2.53-11.176,26.75-12.26,27.258s-31.367-14.263-31.6-15.72,1.153-4.548,2.245-4.325c11.568,2.307,25.643,3.095,27.177.177a74.342,74.342,0,0,0,3.506-9.7S78.186,637.2,77.217,639.714Z" transform="translate(-20.903 -392.351)" fill="#f77f89" fill-rule="evenodd"/>
        <path id="Path_264" data-name="Path 264" d="M35.59,662.162c-1.107-.219-2.487,2.872-2.245,4.325s30.51,16.239,31.6,15.716c.481-.235,2.841-5.328,5.321-10.945-9.346,1.411-14.317-2.968-16.424-7.062a103.419,103.419,0,0,1-18.25-2.034Z" transform="translate(-20.893 -407.587)" fill="#6367fd" fill-rule="evenodd"/>
        <path id="Path_265" data-name="Path 265" d="M213.152,364.34c30.887,38.3,60.9,58.7,60.9,58.7l15.978-16.147L243.9,353.214s3.783-41.436-4.229-49.037S193.73,340.262,213.152,364.34Z" transform="translate(-128.223 -186.697)" fill="#c4c4c4" fill-rule="evenodd"/>
        <path id="Path_266" data-name="Path 266" d="M137.339,290.711,105.66,420.179l17.173,8.458s28.761-75.737,33.013-80.35c8.75-9.477,22.952-43.558,21.71-56.749S137.339,290.711,137.339,290.711Z" transform="translate(-65.423 -175.71)" fill="#c4c4c4" fill-rule="evenodd"/>
        <path id="Path_267" data-name="Path 267" d="M311.682,318.038a26.173,26.173,0,0,1,.85,16.658c4.29,6.632,2.287,11.3-7.539,12.475-1.653-2.018-3.314-3.345-5.155-6.255a46.139,46.139,0,0,1-.6-7.739c-.1-2.207,4.379-11.968,3.575-15.889S310.944,315.585,311.682,318.038Z" transform="translate(-184.579 -193.991)" fill="#f77f89" fill-rule="evenodd"/>
        <path id="Path_268" data-name="Path 268" d="M331.251,384.755a23.248,23.248,0,0,1-2.741-3.525" transform="translate(-202.599 -234.666)" fill="none" stroke="#cb5d66" stroke-linecap="round" stroke-linejoin="round" stroke-width="2"/>
        <path id="Path_269" data-name="Path 269" d="M316.286,385.452a42.932,42.932,0,0,1-5.186-6.832" transform="translate(-191.882 -233.059)" fill="none" stroke="#cb5d66" stroke-linecap="round" stroke-linejoin="round" stroke-width="2"/>
        <path id="Path_270" data-name="Path 270" d="M89.6,297.015c-2.045,1.657-4.167,3.625-6.893,4.656-4.075.984-11.534,9.161-11.534,10.922a2.4,2.4,0,0,0,2.414,2.307c.8.05,2.5-1.8,2.933-2.326-.742,1.692-1.153,3.983-.35,4.7a1.906,1.906,0,0,0,2.81.038c1.33-1.538,1-3.283,1.126-4.306.654-1.249,2.434-4.029,3.187-4.367a1.4,1.4,0,0,1,1.469,1.053c.15.842-1.807,2.722-2.026,3.506,0,1,1.084,2.261,2.026,2.011,1.069-.284,4.375-3.495,5.105-4.371.984-1.18,1.43-3.756,1.957-4.613a27.158,27.158,0,0,1,2.953-3.076C95.156,302.767,91.638,295.362,89.6,297.015Z" transform="translate(-44.193 -182.68)" fill="#f77f89" fill-rule="evenodd"/>
        <path id="Path_271" data-name="Path 271" d="M92.64,327.543c-2.422-2.011-6.2,2.107-7.92,3.768" transform="translate(-52.534 -201.286)" fill="none" stroke="#cb5d66" stroke-linecap="round" stroke-linejoin="round" stroke-width="2"/>
        <path id="Path_272" data-name="Path 272" d="M145.921,125.929c-7.92,7.57-11.8,26.527-13.906,38.73-6.947,6.836-20.937,21.971-20.926,25.6s6.839,9.7,8.577,9.657,17.915-17.746,20.43-19.815S147.809,124.118,145.921,125.929Z" transform="translate(-68.766 -77.488)" fill="#f7d167" fill-rule="evenodd"/>
        <path id="Path_273" data-name="Path 273" d="M189.472,17.3c-1.065-.957-2.872-1.326-2.872-6.593C186.6,5.1,193.289,0,201.809,0c13.379,0,17.266,11.733,17.727,15.882s-.265,13.963.665,17.95c1.868,8.158,9.715,14.455,9.715,28.088,0,4.144-17.977.554-21.195.073s-6.974-21.821-6.974-21.821S190.537,18.258,189.472,17.3Z" transform="translate(-115.246)" fill-rule="evenodd"/>
        <path id="Path_274" data-name="Path 274" d="M227.6,76.727c-.642,2.591-.734,13.675-.258,17.373-2.18,1.565-10.292,1.384-11.983-.311.511-4.567.511-8.631,0-10.607S228.24,74.136,227.6,76.727Z" transform="translate(-132.939 -46.882)" fill="#f77f89" fill-rule="evenodd"/>
        <path id="Path_275" data-name="Path 275" d="M185,30.756c0-8.873,6.42-16.066,14.344-16.066s14.344,7.193,14.344,16.066-6.42,16.062-14.344,16.062S185,39.625,185,30.756Z" transform="translate(-114.261 -9.042)" fill="#f77f89" fill-rule="evenodd"/>
        <path id="Path_276" data-name="Path 276" d="M197.752,70.706c-.211-2.745-2.468-8.708-3.645-9.419s-10.411-1.8-13.51-6.416c-1.576,1.3-2.868,3.725-2.741,4.229.261,1.042,2.733,2.806,2.733,2.806s.557,6.682,5.382,9.661C189.459,73.727,196.36,71.963,197.752,70.706Z" transform="translate(-109.858 -33.775)" fill="#fff" fill-rule="evenodd"/>
        <path id="Path_277" data-name="Path 277" d="M219.35,62.357a23.217,23.217,0,0,1,8.22-7.2" transform="translate(-135.405 -33.954)" fill="none" stroke="#fff" stroke-linecap="round" stroke-linejoin="round" stroke-width="2"/>
        <path id="Path_278" data-name="Path 278" d="M224.86,80.2s9.131,1.4,10.611-2.568" transform="translate(-138.797 -47.785)" fill="none" stroke="#fff" stroke-linecap="round" stroke-linejoin="round" stroke-width="2"/>
        <path id="Path_279" data-name="Path 279" d="M201.44,12.814c1.88,1.7,2.71,5.944,4.429,8.073,2.787,3.46,8.147,4.048,9.8,8.612s10.28.877,10.28.877l-1.107-10.849-6.393-6.686L208.5,10S199.575,11.111,201.44,12.814Z" transform="translate(-124.223 -6.155)" fill-rule="evenodd"/>
        <path id="Path_280" data-name="Path 280" d="M232.44,58.092a5.482,5.482,0,1,1,5.482,5.482A5.482,5.482,0,0,1,232.44,58.092Z" transform="translate(-143.463 -32.384)" fill="#f77f89" fill-rule="evenodd"/>
        <path id="Path_281" data-name="Path 281" d="M201.18,50.361c0-1.111.488-2.011,1.088-2.011s1.092.9,1.092,2.011-.488,2.011-1.092,2.011S201.18,51.472,201.18,50.361Z" transform="translate(-124.221 -29.762)" fill="#cb5d66" fill-rule="evenodd"/>
        <path id="Path_282" data-name="Path 282" d="M197.311,107.19c23.54,0,39.941,44.635,41.648,51.4s.384,31.456-.227,33.332c-2.334.458-10.765-1.088-12.518-2.141-1.538-2.568-2.1-22.033-2.73-23.8A10.053,10.053,0,0,0,221.208,162c.684,5.236-.058,18.092-.511,19.968s-36.992,1.788-39.764.627c-1.738-.727-2.964-1.484-3.21-3.237-.384-2.895.792-4.809.473-7.228s-1.676-2.791-2.088-6.728c-.427-4.121,2.353-9.611,1.442-13.679C172.737,130.211,184.278,107.19,197.311,107.19Z" transform="translate(-108.76 -65.981)" fill="#f7d167" fill-rule="evenodd"/>
        <path id="Path_283" data-name="Path 283" d="M216.424,106.81h10.111c.6,0,1.08.684,1.08,1.538v4.175c0,.842-.484,1.538-1.08,1.538H216.424c-.6,0-1.084-.684-1.084-1.538v-4.187C215.34,107.494,215.824,106.81,216.424,106.81Z" transform="translate(-132.937 -65.747)" fill="#f7d167" fill-rule="evenodd"/>
        <path id="Path_284" data-name="Path 284" d="M115.57,440.163,153.477,314.87" transform="translate(-71.523 -193.818)" fill="none" stroke="#8d8d8d" stroke-linecap="round" stroke-linejoin="round" stroke-width="2"/>
        <path id="Path_285" data-name="Path 285" d="M128.689,624.52l-18.069-8.95" transform="translate(-68.477 -378.914)" fill="none" stroke="#8d8d8d" stroke-linecap="round" stroke-linejoin="round" stroke-width="2"/>
        <path id="Path_286" data-name="Path 286" d="M197.671,463.339c-1.834,1.057-5.732.5-7.631-.769" transform="translate(-117.363 -284.735)" fill="none" stroke="#8d8d8d" stroke-linecap="round" stroke-linejoin="round" stroke-width="2"/>
        <path id="Path_287" data-name="Path 287" d="M196.79,436.47l8.024,7.562" transform="translate(-121.518 -268.669)" fill="none" stroke="#8d8d8d" stroke-linecap="round" stroke-linejoin="round" stroke-width="2"/>
        <path id="Path_288" data-name="Path 288" d="M226.16,373.388c1.8-3.968,3.16-6.659,3.845-7.416,7.8-8.458,19.938-36.458,21.6-51.782" transform="translate(-139.597 -193.399)" fill="none" stroke="#8d8d8d" stroke-linecap="round" stroke-linejoin="round" stroke-width="2"/>
        <path id="Path_289" data-name="Path 289" d="M303.241,498.805s-51.709-49.363-54.111-51.3c-.154-3.46-.384-10.2-2.78-12.268" transform="translate(-152.025 -267.912)" fill="none" stroke="#8d8d8d" stroke-linecap="round" stroke-linejoin="round" stroke-width="2"/>
        <path id="Path_290" data-name="Path 290" d="M291.415,441.26c-1.657,1.134-4.49,5.182-4.675,7.52" transform="translate(-176.887 -271.617)" fill="none" stroke="#8d8d8d" stroke-linecap="round" stroke-linejoin="round" stroke-width="2"/>
        <path id="Path_291" data-name="Path 291" d="M287.137,437.2c-.927.261-3.6,1.784-4.287,3.018" transform="translate(-174.493 -269.118)" fill="none" stroke="#8d8d8d" stroke-linecap="round" stroke-linejoin="round" stroke-width="2"/>
        <path id="Path_292" data-name="Path 292" d="M279.923,427.683l-3.356-.25L271,425.33" transform="translate(-167.198 -261.812)" fill="none" stroke="#8d8d8d" stroke-linecap="round" stroke-linejoin="round" stroke-width="2"/>
        <path id="Path_293" data-name="Path 293" d="M288.986,431.061l-3.076-.231" transform="translate(-176.376 -265.197)" fill="none" stroke="#8d8d8d" stroke-linecap="round" stroke-linejoin="round" stroke-width="2"/>
        <path id="Path_294" data-name="Path 294" d="M380.023,557.6,362,574.354" transform="translate(-223.213 -343.23)" fill="none" stroke="#8d8d8d" stroke-linecap="round" stroke-linejoin="round" stroke-width="2"/>
        <path id="Path_295" data-name="Path 295" d="M181.78,324.81s13.383,2.422,21.656,1.292" transform="translate(-112.279 -199.937)" fill="none" stroke="#8d8d8d" stroke-linecap="round" stroke-linejoin="round" stroke-width="2"/>
        <path id="Path_296" data-name="Path 296" d="M179.83,218.78a3.465,3.465,0,0,1-2.107-2.726c-.384-2.891.792-4.809.473-7.224s-1.676-2.791-2.088-6.728c-.427-4.121,2.353-9.611,1.442-13.679a48.918,48.918,0,0,1,.684-23.494" transform="translate(-108.76 -101.523)" fill="none" stroke="#ff3274" stroke-linecap="round" stroke-linejoin="round" stroke-width="2"/>
        <path id="Path_297" data-name="Path 297" d="M127.2,292.623c-1.407-.8-8.619-7.374-10.346-10.9" transform="translate(-72.311 -173.413)" fill="none" stroke="#ff3274" stroke-linecap="round" stroke-linejoin="round" stroke-width="2"/>
        <path id="Path_298" data-name="Path 298" d="M132.873,306.23l-3.733,4" transform="translate(-79.876 -188.5)" fill="none" stroke="#ff3274" stroke-linecap="round" stroke-linejoin="round" stroke-width="2"/>
        <path id="Path_299" data-name="Path 299" d="M126.639,301.42l-3.729,4.006" transform="translate(-76.042 -185.539)" fill="none" stroke="#ff3274" stroke-linecap="round" stroke-linejoin="round" stroke-width="2"/>
        <path id="Path_300" data-name="Path 300" d="M120.905,295.82,117.38,299.6" transform="translate(-72.638 -182.092)" fill="none" stroke="#ff3274" stroke-linecap="round" stroke-linejoin="round" stroke-width="2"/>
        <path id="Path_301" data-name="Path 301" d="M116.2,289.47l-3.437,3.687" transform="translate(-69.794 -178.183)" fill="none" stroke="#ff3274" stroke-linecap="round" stroke-linejoin="round" stroke-width="2"/>
        <path id="Path_302" data-name="Path 302" d="M317.865,312.338,303.64,310.8" transform="translate(-187.29 -191.313)" fill="none" stroke="#ff3274" stroke-linecap="round" stroke-linejoin="round" stroke-width="2"/>
        <path id="Path_303" data-name="Path 303" d="M333.914,314.14l-.384,6.37" transform="translate(-205.689 -193.369)" fill="none" stroke="#ff3274" stroke-linecap="round" stroke-linejoin="round" stroke-width="2"/>
        <path id="Path_304" data-name="Path 304" d="M324.406,313.13l-.546,6.313" transform="translate(-199.736 -192.747)" fill="none" stroke="#ff3274" stroke-linecap="round" stroke-linejoin="round" stroke-width="2"/>
        <path id="Path_305" data-name="Path 305" d="M315.521,312.14l-.411,6.028" transform="translate(-194.35 -192.138)" fill="none" stroke="#ff3274" stroke-linecap="round" stroke-linejoin="round" stroke-width="2"/>
        <path id="Path_306" data-name="Path 306" d="M328.032,243.8a9.131,9.131,0,0,1-3.46-17.577" transform="translate(-196.689 -139.25)" fill="none" stroke="#ff3274" stroke-linecap="round" stroke-linejoin="round" stroke-width="2"/>
        <path id="Path_307" data-name="Path 307" d="M266.761,210.913c-1.261-2.068-15.939-25.228-16.7-26.143" transform="translate(-154.309 -113.735)" fill="none" stroke="#ff3274" stroke-linecap="round" stroke-linejoin="round" stroke-width="2"/>
        <path id="Path_308" data-name="Path 308" d="M241.4,184.74l3.345-.2" transform="translate(-148.978 -113.593)" fill="none" stroke="#ff3274" stroke-linecap="round" stroke-linejoin="round" stroke-width="2"/>
        <path id="Path_309" data-name="Path 309" d="M242.67,188.46l2.818-3.91" transform="translate(-149.76 -113.6)" fill="none" stroke="#ff3274" stroke-linecap="round" stroke-linejoin="round" stroke-width="2"/>
        <path id="Path_310" data-name="Path 310" d="M248.83,190.582l.434-5.882" transform="translate(-153.552 -113.692)" fill="none" stroke="#ff3274" stroke-linecap="round" stroke-linejoin="round" stroke-width="2"/>
        <path id="Path_311" data-name="Path 311" d="M198.79,270.93l10.323-5.04" transform="translate(-122.749 -163.668)" fill="none" stroke="#ff3274" stroke-linecap="round" stroke-linejoin="round" stroke-width="2"/>
        <path id="Path_312" data-name="Path 312" d="M203.383,262.36l-13.613,2.733" transform="translate(-117.197 -161.495)" fill="none" stroke="#ff3274" stroke-linecap="round" stroke-linejoin="round" stroke-width="2"/>
        <path id="Path_313" data-name="Path 313" d="M194.18,252.087l11.384-7.5" transform="translate(-119.912 -150.557)" fill="none" stroke="#ff3274" stroke-linecap="round" stroke-linejoin="round" stroke-width="2"/>
        <path id="Path_314" data-name="Path 314" d="M221.7,114.019h-5.279c-.6,0-1.084-.684-1.084-1.538v-4.164c0-.842.484-1.538,1.084-1.538h10.111a.988.988,0,0,1,.819.531" transform="translate(-132.937 -65.728)" fill="none" stroke="#ff3274" stroke-linecap="round" stroke-linejoin="round" stroke-width="2"/>
        <path id="Path_315" data-name="Path 315" d="M222.26,106.81l.069,7.228" transform="translate(-137.196 -65.747)" fill="none" stroke="#ff3274" stroke-linecap="round" stroke-linejoin="round" stroke-width="2"/>
        <path id="Path_316" data-name="Path 316" d="M230,107.07l.035,3.514.035,3.714" transform="translate(-141.961 -65.907)" fill="none" stroke="#ff3274" stroke-linecap="round" stroke-linejoin="round" stroke-width="2"/>
        <path id="Path_317" data-name="Path 317" d="M238.66,107.07l.035,3.514.035,3.714" transform="translate(-147.291 -65.907)" fill="none" stroke="#ff3274" stroke-linecap="round" stroke-linejoin="round" stroke-width="2"/>
        <path id="Path_318" data-name="Path 318" d="M68.205,680.568,35.2,665.77" transform="translate(-22.052 -409.814)" fill="none" stroke="#fff" stroke-linecap="round" stroke-linejoin="round" stroke-width="2"/>
        <path id="Path_319" data-name="Path 319" d="M409.633,626.38l-17.708,19.03L377.7,647.29" transform="translate(-232.877 -385.568)" fill="none" stroke="#fff" stroke-linecap="round" stroke-linejoin="round" stroke-width="2"/>
        <path id="Path_320" data-name="Path 320" d="M9.508,53.748c-2.441-1.03-2.134-6.82.461-9.038s9.111-4.137,11.676-11.049c.93-1.88,3.71.857,4.437,5.528C26.485,50.3,14.863,56.009,9.508,53.748Z" transform="translate(-5.21 -20.351)" fill="#aadaf1" fill-rule="evenodd"/>
        <path id="Path_321" data-name="Path 321" d="M16.909,52.07C16.52,54.523,11.38,65.58,1,68.394" transform="translate(-1 -32.052)" fill="none" stroke="#72a5bd" stroke-linecap="round" stroke-linejoin="round" stroke-width="2"/>
        <path id="Path_322" data-name="Path 322" d="M180.6,54.87c-1.576,1.3-2.868,3.725-2.741,4.229.261,1.042,2.733,2.806,2.733,2.806s.557,6.682,5.382,9.661c1.7,1.046,4.194,1.153,6.478.865" transform="translate(-109.858 -33.775)" fill="none" stroke="#c9c9c9" stroke-linecap="round" stroke-linejoin="round" stroke-width="2"/>
        <path id="Path_323" data-name="Path 323" d="M460.928,518.786c1.98-9.408,1.269-39.914-4.148-65.226" transform="translate(-281.555 -279.189)" fill="none" stroke="#72a5bd" stroke-linecap="round" stroke-linejoin="round" stroke-width="2"/>
      </g>
    </g>
    <g id="Layer_2-4" data-name="Layer 2" transform="translate(142.984 74.72)">
      <g id="Layer_1-4" data-name="Layer 1" transform="translate(1.016)">
        <path id="Path_64" data-name="Path 64" d="M108.945,656.213,105.8,666.551l-12.571.454-.84-15.546Z" transform="translate(-59.44 -416.539)" fill="#f77f89" fill-rule="evenodd"/>
        <path id="Path_65" data-name="Path 65" d="M93.19,689.61v13.584l33.991.768s-.966-9.708-18.348-9.866c.065-4.266.072-4.486.072-4.486Z" transform="translate(-59.951 -440.931)" fill="#6367fd" fill-rule="evenodd"/>
        <path id="Path_66" data-name="Path 66" d="M50.2,668.832l.234,10.18,13.126.458,3.411-11.33Z" transform="translate(-32.464 -427.204)" fill="#f77f89" fill-rule="evenodd"/>
        <path id="Path_67" data-name="Path 67" d="M62.014,0C76.3,0,79.255,13.57,79.262,18.553c0,4.749-.927,5.474-.894,10.288.022,3.657,1.082,6.217.984,8.294-.563,10.818-15.189,13.937-19.365,14S37.63,47.676,37.63,39.267c0-5.867,3.732-15.25,3.631-21.766C41.038,3.967,52.354,0,62.014,0Z" transform="translate(-24.427)" fill-rule="evenodd"/>
        <path id="Path_68" data-name="Path 68" d="M50,693.28l.195,13.595,33.367.754s0-9.913-18.276-10.1V693.28Z" transform="translate(-32.336 -443.278)" fill="#6367fd" fill-rule="evenodd"/>
        <path id="Path_69" data-name="Path 69" d="M40.92,351.529l.087,95.1,23.843-.519.361-4.4,15.376,2.073,9.758-99.167-5.268-25.394-34.824-.952Z" transform="translate(-26.53 -203.499)" fill="#3b4161" fill-rule="evenodd"/>
        <path id="Path_70" data-name="Path 70" d="M112.049,522.56l14.3,24.027-2.715,27.565-15.4-1.8Z" transform="translate(-69.568 -334.121)" fill="#15192c" fill-rule="evenodd"/>
        <path id="Path_71" data-name="Path 71" d="M75.367,203.162H100.7l3.429-37.42-4.576-28.675-8.655-8.334-8.676-3.873L66.55,127.254Z" transform="translate(-42.918 -79.835)" fill="#f7d167" fill-rule="evenodd"/>
        <path id="Path_72" data-name="Path 72" d="M63.38,494.381l.166-101.161" transform="translate(-40.891 -251.422)" fill="none" stroke="#737999" stroke-linecap="round" stroke-linejoin="round" stroke-width="1.7"/>
        <path id="Path_73" data-name="Path 73" d="M29.289,123.569c-5.921.162-23.6,6.581-26.184,13.094C1.144,141.6-.2,186.3,4.407,188.486a5.005,5.005,0,0,0,.923.339c-.278,1.37-2.932,33.1-2.257,35.74s2.445,6.635,5.009,6.491c9.92-.6,28.145-13.617,29.956-15.741.278-4.024,1.046-19.141,1.046-19.141L37.5,151.322l-9.04-24.716S35.21,123.407,29.289,123.569Z" transform="translate(-1.193 -79.006)" fill="#fff" fill-rule="evenodd"/>
        <path id="Path_74" data-name="Path 74" d="M114.71,122.8c10.18,1.266,24.55,9.159,26.4,12.755,1.558,3.022.768,42.144.768,42.144a25.1,25.1,0,0,0-3.17,19.3c2.387,10.5,3.094,24.676.591,27.327-4.125-2.088-9.43-10.458-10.385-12.52s-1.2-13.732-1.94-16.227-4.028-46.673-4.028-46.673S121.41,131.058,114.71,122.8Z" transform="translate(-73.711 -78.517)" fill="#fff" fill-rule="evenodd"/>
        <path id="Path_75" data-name="Path 75" d="M43.64,133.22c5.124,9.343,15.506,19.992,20.858,24.056" transform="translate(-28.269 -85.18)" fill="none" stroke="#c9c9c9" stroke-linecap="round" stroke-linejoin="round" stroke-width="2"/>
        <path id="Path_76" data-name="Path 76" d="M129,125.77c4.562,6.152,5.737,16.606,2.164,27.222" transform="translate(-82.848 -80.416)" fill="none" stroke="#c9c9c9" stroke-linecap="round" stroke-linejoin="round" stroke-width="2"/>
        <path id="Path_77" data-name="Path 77" d="M58,198.4a4.06,4.06,0,1,1,4.057,4.06A4.06,4.06,0,0,1,58,198.4Z" transform="translate(-37.451 -124.26)" fill="none" stroke="#353823" stroke-linecap="round" stroke-linejoin="round" stroke-width="3.41"/>
        <path id="Path_78" data-name="Path 78" d="M63.48,201.923A2.073,2.073,0,1,1,65.553,204,2.073,2.073,0,0,1,63.48,201.923Z" transform="translate(-40.955 -127.783)" fill="#353823" fill-rule="evenodd"/>
        <path id="Path_79" data-name="Path 79" d="M63.092,147.595C60.351,137.53,60.174,123.524,67.25,121" transform="translate(-39.582 -77.367)" fill="none" stroke="#353823" stroke-linecap="round" stroke-linejoin="round" stroke-width="3.41"/>
        <path id="Path_80" data-name="Path 80" d="M112,116.25c4.035,1.709,7.879,9.592,8.781,16.343" transform="translate(-71.978 -74.329)" fill="none" stroke="#353823" stroke-linecap="round" stroke-linejoin="round" stroke-width="3.41"/>
        <path id="Path_81" data-name="Path 81" d="M123.563,174.092c-1.291-6.238.656-11.9,4.349-12.679s7.735,3.671,9.015,9.909-.656,11.9-4.349,12.675S124.854,180.32,123.563,174.092Z" transform="translate(-79.117 -103.15)" fill="none" stroke="#353823" stroke-linecap="round" stroke-linejoin="round" stroke-width="3.41"/>
        <path id="Path_82" data-name="Path 82" d="M51.868,169.52,50.31,199.851" transform="translate(-32.534 -108.39)" fill="none" stroke="#c9c9c9" stroke-linecap="round" stroke-linejoin="round" stroke-width="2"/>
        <path id="Path_83" data-name="Path 83" d="M42.47,172l4.05,5.647" transform="translate(-27.521 -109.976)" fill="none" stroke="#c9c9c9" stroke-linecap="round" stroke-linejoin="round" stroke-width="2"/>
        <path id="Path_84" data-name="Path 84" d="M52.391,246.94,36.82,250.665" transform="translate(-23.909 -157.892)" fill="#606060" stroke="#c9c9c9" stroke-linecap="round" stroke-linejoin="round" stroke-width="2" fill-rule="evenodd"/>
        <path id="Path_85" data-name="Path 85" d="M39,245.72l3.967,3.029" transform="translate(-25.303 -157.112)" fill="none" stroke="#c9c9c9" stroke-linecap="round" stroke-linejoin="round" stroke-width="2"/>
        <path id="Path_86" data-name="Path 86" d="M30.09,195.393c-6.549,2.636-22.105,5.788-25.044,3.177C1.115,195.076,0,159.012,1.969,149.445c1.15-5.568,6.96-9.152,9.989-10.595" transform="translate(-1.016 -88.78)" fill="none" stroke="#c9c9c9" stroke-linecap="round" stroke-linejoin="round" stroke-width="2"/>
        <path id="Path_87" data-name="Path 87" d="M64.992,268.5c-1.868-2.369-2.582-14.183-1.68-17.727" transform="translate(-40.6 -160.34)" fill="none" stroke="#c9c9c9" stroke-linecap="round" stroke-linejoin="round" stroke-width="2"/>
        <path id="Path_88" data-name="Path 88" d="M69.23,255.476a.948.948,0,1,1,.279.672A.952.952,0,0,1,69.23,255.476Z" transform="translate(-44.631 -162.738)" fill="#c9c9c9" fill-rule="evenodd"/>
        <path id="Path_89" data-name="Path 89" d="M43.947,337.47a17.477,17.477,0,0,1-11.356.487,5.979,5.979,0,0,0-.191,1.4v7.533a5.95,5.95,0,0,0,11.9,0v-7.54A5.914,5.914,0,0,0,43.947,337.47Z" transform="translate(-21.083 -215.776)" fill="none" stroke="#c9c9c9" stroke-linecap="round" stroke-linejoin="round" stroke-width="2"/>
        <path id="Path_90" data-name="Path 90" d="M99.293,190.52h31.1a2.48,2.48,0,0,1,2.524,3.292l-12,44.16a4.713,4.713,0,0,1-4.327,3.292H85.5a2.481,2.481,0,0,1-2.524-3.292l12-44.16A4.71,4.71,0,0,1,99.293,190.52Z" transform="translate(-53.35 -121.817)" fill="#6367fd" fill-rule="evenodd"/>
        <path id="Path_91" data-name="Path 91" d="M146.872,184.213h17.648a1.165,1.165,0,0,1,1.186,1.572l-.858,3a2.286,2.286,0,0,1-2.084,1.572H145.116a1.168,1.168,0,0,1-1.186-1.572l.858-3A2.293,2.293,0,0,1,146.872,184.213Z" transform="translate(-92.347 -117.782)" fill="#3b4161" fill-rule="evenodd"/>
        <path id="Path_92" data-name="Path 92" d="M79.195,232.562a21.125,21.125,0,0,1,4.353-1.9c2.189-1.8,3.8-8.925,4.378-9.376s2.524-.159,2.582.516a10,10,0,0,1-2.07,7.933c6.368-4.05,6.852-5.845,8.6-4.49s2.384,7.969.88,10.7c-4.14,7.544-15.03,8.564-18.362,8.615A36.933,36.933,0,0,1,79.195,232.562Z" transform="translate(-50.803 -141.35)" fill="#f77f89" fill-rule="evenodd"/>
        <path id="Path_93" data-name="Path 93" d="M41.15,652.25l24.622-.79" transform="translate(-26.677 -416.539)" fill="none" stroke="#737999" stroke-linecap="round" stroke-linejoin="round" stroke-width="1.7"/>
        <path id="Path_94" data-name="Path 94" d="M115.832,386.65l-7.522,98.785" transform="translate(-69.619 -247.221)" fill="none" stroke="#737999" stroke-linecap="round" stroke-linejoin="round" stroke-width="1.7"/>
        <path id="Path_95" data-name="Path 95" d="M110,638.58l15.549,1.825" transform="translate(-70.7 -408.303)" fill="none" stroke="#737999" stroke-linecap="round" stroke-linejoin="round" stroke-width="1.7"/>
        <path id="Path_96" data-name="Path 96" d="M151.981,504.548a6.466,6.466,0,1,1,1.23-12.621" transform="translate(-92.995 -314.356)" fill="none" stroke="#737999" stroke-linecap="round" stroke-linejoin="round" stroke-width="1.7"/>
        <path id="Path_97" data-name="Path 97" d="M105.693,514.4a7.136,7.136,0,0,1,.393-14.262,6.794,6.794,0,0,1,.682.032" transform="translate(-63.634 -319.786)" fill="none" stroke="#737999" stroke-linecap="round" stroke-linejoin="round" stroke-width="1.7"/>
        <path id="Path_98" data-name="Path 98" d="M122.471,238.09l-5.571,4.461" transform="translate(-75.111 -152.233)" fill="none" stroke="#a7464f" stroke-linecap="round" stroke-linejoin="round" stroke-width="3.41"/>
        <path id="Path_99" data-name="Path 99" d="M121.455,250.89l-7.075,5.625" transform="translate(-73.5 -160.417)" fill="none" stroke="#a7464f" stroke-linecap="round" stroke-linejoin="round" stroke-width="3.41"/>
        <path id="Path_100" data-name="Path 100" d="M214.681,230.888a20.791,20.791,0,0,1,1.68-7.933c.483-1.14.512-3.015-1.186-3.015-1.933,0-4.518,3.88-3.245,8.5S214.807,232.987,214.681,230.888Z" transform="translate(-135.656 -140.628)" fill="#f77f89" fill-rule="evenodd"/>
        <path id="Path_101" data-name="Path 101" d="M200.261,226.09c1.536,0,6.206,9.239,6.174,10.36s-.519,2.827-1.244,2.741-6.79-7.807-6.79-10.429C198.4,227.244,199.139,226.09,200.261,226.09Z" transform="translate(-127.222 -144.56)" fill="#f77f89" fill-rule="evenodd"/>
        <path id="Path_102" data-name="Path 102" d="M194.975,240.81c1.915,0,6.963,7.364,7,8.207s-.984,1.619-1.828,1.655-6.877-4.911-6.877-7.212C193.259,242.054,193.894,240.81,194.975,240.81Z" transform="translate(-123.941 -153.972)" fill="#f77f89" fill-rule="evenodd"/>
        <path id="Path_103" data-name="Path 103" d="M199.875,268.422c.829-.04,3.137-2.1,3.137-3.725,0-.638-1.612-2.29-2.42-2.239s-2.456,3.155-2.423,3.945S198.789,268.462,199.875,268.422Z" transform="translate(-127.074 -167.813)" fill="#f77f89" fill-rule="evenodd"/>
        <path id="Path_104" data-name="Path 104" d="M211.6,235.56c1.655,2.755,3.292,6.282,3.274,6.945" transform="translate(-135.662 -150.615)" fill="none" stroke="#a7464f" stroke-linecap="round" stroke-linejoin="round" stroke-width="3.41"/>
        <path id="Path_105" data-name="Path 105" d="M201.21,242.31c2.279,1.716,5.8,6.963,5.831,7.667" transform="translate(-129.019 -154.931)" fill="none" stroke="#a94b53" stroke-linecap="round" stroke-linejoin="round" stroke-width="3.41"/>
        <path id="Path_106" data-name="Path 106" d="M63.06,31.962A14.757,14.757,0,1,1,77.823,46.909,14.865,14.865,0,0,1,63.06,31.962Z" transform="translate(-40.686 -10.87)" fill="#f77f89" fill-rule="evenodd"/>
        <path id="Path_107" data-name="Path 107" d="M97.87,58.7c.159-.952.721-1.655,1.284-1.561s.873.938.721,1.89-.721,1.655-1.284,1.565S97.715,59.652,97.87,58.7Z" transform="translate(-62.918 -36.526)" fill="#b5545c" fill-rule="evenodd"/>
        <path id="Path_108" data-name="Path 108" d="M128.683,60.857c.148-.891.682-1.547,1.2-1.46s.815.876.671,1.767-.685,1.543-1.2,1.442S128.535,61.748,128.683,60.857Z" transform="translate(-82.621 -37.973)" fill="#b5545c" fill-rule="evenodd"/>
        <path id="Path_109" data-name="Path 109" d="M69.257,75.89C70.133,78.328,72.336,91,71.781,95.6c2.308,3.5,12.592,2.524,15.658-.436a20.178,20.178,0,0,1-1.024-10.9C86.944,80.9,68.38,73.46,69.257,75.89Z" transform="translate(-44.629 -48.217)" fill="#f77f89" fill-rule="evenodd"/>
        <path id="Path_110" data-name="Path 110" d="M81.59,12.782c.126,3.552-3.116,6.945-11.929,8.629.966,2.492,1.046,6.239-3.768,6.913-5.615.779-6.073-6.394-6.073-6.394L68.229,12S81.467,9.223,81.59,12.782Z" transform="translate(-38.615 -7.012)" fill-rule="evenodd"/>
        <path id="Path_111" data-name="Path 111" d="M112.807,8.256c-.361,3.155,3.271,10.818,11.68,11.027C130.466,19.284,113.157,5.1,112.807,8.256Z" transform="translate(-72.479 -4.986)" fill-rule="evenodd"/>
        <path id="Path_112" data-name="Path 112" d="M85.327,79.478c-.808-1.021.361-5.672,1.634-7.8,1.536-.905,6.985-.151,9.794-2.568.826-.721,1.269-.188,1.911.6,1.129,1.385,4.522,2.1,5.791,2.885.188,2.019-1.666,6.642-2.467,7.677C100.736,81.912,89.265,82.06,85.327,79.478Z" transform="translate(-54.754 -43.969)" fill="#fff" fill-rule="evenodd"/>
        <path id="Path_113" data-name="Path 113" d="M83.483,63.467c-.743-1.24-3.988-6.79-5.023-8.2" transform="translate(-50.533 -35.339)" fill="none" stroke="#fff" stroke-linecap="round" stroke-linejoin="round" stroke-width="3.41"/>
        <path id="Path_114" data-name="Path 114" d="M73.363,81.384c-2.2,0-7.418-6.87-8.013-9.174" transform="translate(-42.151 -46.171)" fill="none" stroke="#fff" stroke-linecap="round" stroke-linejoin="round" stroke-width="3.41"/>
        <path id="Path_115" data-name="Path 115" d="M56.06,53.367a4.807,4.807,0,1,1,4.807,4.807A4.807,4.807,0,0,1,56.06,53.367Z" transform="translate(-36.211 -31.049)" fill="#f77f89" fill-rule="evenodd"/>
        <path id="Path_116" data-name="Path 116" d="M82.834,723.764l-32.4-.224" transform="translate(-32.611 -462.626)" fill="none" stroke="#4c4fd9" stroke-linecap="round" stroke-linejoin="round" stroke-width="1.7"/>
        <path id="Path_117" data-name="Path 117" d="M110.355,711.134c-.891-2.816-4.374-8.334-17.965-8.467V701.3" transform="translate(-59.44 -448.406)" fill="none" stroke="#4c4fd9" stroke-linecap="round" stroke-linejoin="round" stroke-width="1.7"/>
        <path id="Path_118" data-name="Path 118" d="M50.43,713.18a6.13,6.13,0,0,1,6.13,6.13v.48" transform="translate(-32.611 -456.002)" fill="none" stroke="#4c4fd9" stroke-linecap="round" stroke-linejoin="round" stroke-width="1.7"/>
        <path id="Path_119" data-name="Path 119" d="M102.35,708.835l1.59-2.755" transform="translate(-65.808 -451.462)" fill="none" stroke="#4c4fd9" stroke-linecap="round" stroke-linejoin="round" stroke-width="1.7"/>
        <path id="Path_120" data-name="Path 120" d="M112.73,710.725l1.356-2.7" transform="translate(-72.445 -452.703)" fill="none" stroke="#4c4fd9" stroke-linecap="round" stroke-linejoin="round" stroke-width="1.7"/>
        <path id="Path_121" data-name="Path 121" d="M122.55,713.609l1.179-2.189" transform="translate(-78.724 -454.877)" fill="none" stroke="#4c4fd9" stroke-linecap="round" stroke-linejoin="round" stroke-width="1.7"/>
        <path id="Path_122" data-name="Path 122" d="M104.69,350.707l16.84-.526" transform="translate(-67.304 -223.903)" fill="none" stroke="#737999" stroke-linecap="round" stroke-linejoin="round" stroke-width="1.7"/>
        <path id="Path_123" data-name="Path 123" d="M50.07,697.689l15.261-.249" transform="translate(-32.381 -445.938)" fill="none" stroke="#4c4fd9" stroke-linecap="round" stroke-linejoin="round" stroke-width="1.7"/>
        <path id="Path_124" data-name="Path 124" d="M93.19,693.776l15.694-.126" transform="translate(-59.951 -443.515)" fill="none" stroke="#4c4fd9" stroke-linecap="round" stroke-linejoin="round" stroke-width="1.7"/>
        <path id="Path_125" data-name="Path 125" d="M155.509,722.181l-16.739-.361" transform="translate(-89.095 -461.526)" fill="none" stroke="#4c4fd9" stroke-linecap="round" stroke-linejoin="round" stroke-width="1.7"/>
        <path id="Path_126" data-name="Path 126" d="M148.112,703.06l-1.442,2.564" transform="translate(-94.146 -449.531)" fill="none" stroke="#4c4fd9" stroke-linecap="round" stroke-linejoin="round" stroke-width="1.7"/>
        <path id="Path_127" data-name="Path 127" d="M154.782,704.65l-1.442,2.568" transform="translate(-98.411 -450.548)" fill="none" stroke="#4c4fd9" stroke-linecap="round" stroke-linejoin="round" stroke-width="1.7"/>
        <path id="Path_128" data-name="Path 128" d="M161.9,706.61l-1.442,2.568" transform="translate(-102.963 -451.801)" fill="none" stroke="#4c4fd9" stroke-linecap="round" stroke-linejoin="round" stroke-width="1.7"/>
        <path id="Path_129" data-name="Path 129" d="M15.641,355.35c-5.409,2.265-9.47-1.771-9.5-5.77S7.69,321.72,7.906,319.34" transform="translate(-4.291 -204.184)" fill="none" stroke="#c9c9c9" stroke-linecap="round" stroke-linejoin="round" stroke-width="2"/>
        <path id="Path_130" data-name="Path 130" d="M168.8,150.061c.281-8.164-8.316-11.9-11.853-13.5" transform="translate(-100.719 -87.315)" fill="none" stroke="#c9c9c9" stroke-linecap="round" stroke-linejoin="round" stroke-width="2"/>
        <path id="Path_131" data-name="Path 131" d="M184.418,363.433c.674-4.353.721-16.13-.418-20.623" transform="translate(-118.015 -219.19)" fill="none" stroke="#c9c9c9" stroke-linecap="round" stroke-linejoin="round" stroke-width="2"/>
      </g>
    </g>
  </g>
</svg>
