<svg xmlns="http://www.w3.org/2000/svg" width="13.25" height="12.974" viewBox="0 0 13.25 12.974">
  <path id="Icon_map-doctor" data-name="Icon map-doctor" d="M12.293,4.033H10.934V2.59A1.851,1.851,0,0,0,9.086.72H5.6A1.851,1.851,0,0,0,3.756,2.59V4.033H2.4A1.646,1.646,0,0,0,.72,5.671v6.351A1.674,1.674,0,0,0,2.4,13.694h9.9a1.675,1.675,0,0,0,1.677-1.672V5.671A1.647,1.647,0,0,0,12.293,4.033ZM4.861,2.59A.8.8,0,0,1,5.6,1.824H9.086a.8.8,0,0,1,.744.766V4.033H4.861Zm5.521,7.516H8.449v1.932H6.241V10.105H4.309V7.9H6.241V5.965H8.449V7.9h1.932v2.208Z" transform="translate(-0.72 -0.72)" fill="#e6e6e6"/>
</svg>
