<svg xmlns="http://www.w3.org/2000/svg" width="73.464" height="73.464" viewBox="0 0 73.464 73.464">
  <g id="icon-06" transform="translate(-1.3 -1.3)">
    <circle id="Ellipse_4" data-name="Ellipse 4" cx="36.732" cy="36.732" r="36.732" transform="translate(1.3 1.3)" fill="#25a6df" opacity="0.2"/>
    <g id="Group_17" data-name="Group 17" transform="translate(18.264 16.007)">
      <path id="Path_353" data-name="Path 353" d="M69.117,46.152h0A42.046,42.046,0,0,1,55.3,44.1,41.43,41.43,0,0,0,69.117,46.152Z" transform="translate(-35.326 -29.53)" fill="none"/>
      <path id="Path_354" data-name="Path 354" d="M35.068,40.528c3.078-1.026,5.814-3.9,5.814-6.7h0c0,2.736-2.8,5.677-5.814,6.7V38.476A13.828,13.828,0,0,1,42.319,26.3,13.757,13.757,0,0,0,35,38.476l.068,2.052Z" transform="translate(-28.912 -23.906)" fill="none"/>
      <path id="Path_355" data-name="Path 355" d="M55.092,79.568a4.707,4.707,0,0,1-.137.889c-.068.616-.137,1.163-.205,1.778l-.684-.41a2.33,2.33,0,0,0-2.12-.205l-1.847.752c-.068,0-.137.068-.274.068a.8.8,0,0,1-.479-.137L47.7,81.141a2.473,2.473,0,0,0-2.189-.205l-.616.274a19.037,19.037,0,0,1,.958-3.01,5.366,5.366,0,0,0,3.625,1.436h5.062A1.334,1.334,0,0,1,55.092,79.568Z" transform="translate(-32.04 -40.305)" fill="none"/>
      <path id="Path_356" data-name="Path 356" d="M47.1,77.786Z" transform="translate(-32.735 -40.165)" fill="none"/>
      <path id="Path_357" data-name="Path 357" d="M62.146,25.573a15.533,15.533,0,0,0-3.9-1.368A8.49,8.49,0,0,0,56.4,24a16.943,16.943,0,0,1,1.847.205A11.541,11.541,0,0,1,62.146,25.573Z" transform="translate(-35.674 -23.179)" fill="none"/>
      <path id="Path_358" data-name="Path 358" d="M75.3,56.061h0a12.211,12.211,0,0,0,.137-1.573V47.1h0v7.387A12.211,12.211,0,0,1,75.3,56.061Z" transform="translate(-41.646 -30.478)" fill="none"/>
      <path id="Path_359" data-name="Path 359" d="M71.44,45.947h0A43.308,43.308,0,0,1,64.6,45.4,43.982,43.982,0,0,0,71.44,45.947Z" transform="translate(-38.265 -29.941)" fill="none"/>
      <path id="Path_360" data-name="Path 360" d="M49.8,79.186c.068,0,.137.068.205.068h.205c-.068-.068-.274-.068-.41-.068Z" transform="translate(-33.589 -40.607)" fill="none"/>
      <path id="Path_361" data-name="Path 361" d="M78.4,56.835A4.595,4.595,0,0,0,80.862,50.2a4.375,4.375,0,0,1,.616,2.326A4.523,4.523,0,0,1,78.4,56.835Z" transform="translate(-42.625 -31.458)" fill="none"/>
      <path id="Path_362" data-name="Path 362" d="M56.377,79.368H51.316A1.894,1.894,0,0,1,50.7,79.3h.068c.205,0,.342.068.547.068h5.062a1.894,1.894,0,0,0,.616-.068h0A1.894,1.894,0,0,1,56.377,79.368Z" transform="translate(-33.873 -40.653)" fill="none"/>
      <path id="Path_363" data-name="Path 363" d="M65.029,75.674h0l.137-.274h0Z" transform="translate(-38.352 -39.42)" fill="none"/>
      <path id="Path_364" data-name="Path 364" d="M76.4,47a2.109,2.109,0,0,1,.684.068C76.879,47.068,76.605,47,76.4,47Z" transform="translate(-41.993 -30.447)" fill="none"/>
      <path id="Path_365" data-name="Path 365" d="M48.9,78.8a.989.989,0,0,0,.479.137h.068A1.06,1.06,0,0,1,48.9,78.8Z" transform="translate(-33.304 -40.495)" fill="none"/>
      <path id="Path_366" data-name="Path 366" d="M49.941,40.631a22.105,22.105,0,0,1-4.036-2.394c-.068-.068-.137-.068-.205-.137.068.068.137.068.205.137a17.144,17.144,0,0,0,4.036,2.394.575.575,0,0,1,.274.752h0A.575.575,0,0,0,49.941,40.631Z" transform="translate(-32.293 -27.634)" fill="none"/>
      <path id="Path_367" data-name="Path 367" d="M48.479,78.605a.067.067,0,0,1,.068.068A2.048,2.048,0,0,1,48,78.4,3.335,3.335,0,0,0,48.479,78.605Z" transform="translate(-33.02 -40.368)" fill="none"/>
      <path id="Path_368" data-name="Path 368" d="M45.263,33.4A22.156,22.156,0,0,0,44.1,35.589h0A22.156,22.156,0,0,1,45.263,33.4Z" transform="translate(-31.788 -26.149)" fill="none"/>
      <path id="Path_369" data-name="Path 369" d="M44.2,36.7Z" transform="translate(-31.819 -27.192)" fill="none"/>
      <path id="Path_370" data-name="Path 370" d="M43.937,37.637,43.8,37.5h0Z" transform="translate(-31.693 -27.445)" fill="none"/>
      <path id="Path_371" data-name="Path 371" d="M47.537,78.137c.068.068.137.068.205.137A1.2,1.2,0,0,1,47.4,78Z" transform="translate(-32.83 -40.242)" fill="none"/>
      <path id="Path_372" data-name="Path 372" d="M27.6,56.2a4.168,4.168,0,0,0,1.231,1.642A3.735,3.735,0,0,1,27.6,56.2Z" transform="translate(-26.574 -33.354)" fill="none"/>
      <path id="Path_373" data-name="Path 373" d="M54.1,43.534h0a.489.489,0,0,1,.616-.342A.489.489,0,0,0,54.1,43.534Z" transform="translate(-34.947 -29.238)" fill="none"/>
      <path id="Path_374" data-name="Path 374" d="M29.657,47.7A4.809,4.809,0,0,0,27.4,50.231,4.809,4.809,0,0,1,29.657,47.7Z" transform="translate(-26.511 -30.668)" fill="none"/>
      <path id="Path_375" data-name="Path 375" d="M32.309,55.766c0-.342-.068-.684-.068-1.026V51.457a1.413,1.413,0,0,0-1.5.752.609.609,0,0,1-.547.342.251.251,0,0,1-.205-.068.575.575,0,0,1-.274-.752,2.65,2.65,0,0,1,2.6-1.5V47.9h-.342a3.967,3.967,0,1,0,0,7.935A.513.513,0,0,1,32.309,55.766Z" transform="translate(-26.7 -30.731)" fill="#facea4"/>
      <path id="Path_376" data-name="Path 376" d="M80.3,51.867A4,4,0,0,0,76.4,47.9v2.394A2.548,2.548,0,0,1,79,51.8a.575.575,0,0,1-.274.752c-.068,0-.137.068-.205.068a.7.7,0,0,1-.547-.342,1.325,1.325,0,0,0-1.5-.752v3.283A6.259,6.259,0,0,1,76.4,55.9h0A4.16,4.16,0,0,0,80.3,51.867Z" transform="translate(-41.993 -30.731)" fill="#facea4"/>
      <path id="Path_377" data-name="Path 377" d="M50.265,24.768c-.342,0-.752-.068-1.094-.068A13.283,13.283,0,0,0,35.9,37.97v1.163a8.965,8.965,0,0,0,3.078-2.257A5.79,5.79,0,0,0,40.62,33.25a.52.52,0,0,1,.41-.547.7.7,0,0,1,.616.137,13.421,13.421,0,0,1,1.163-2.189A13.408,13.408,0,0,1,50.265,24.768Z" transform="translate(-29.197 -23.4)" fill="#25a6df"/>
      <path id="Path_378" data-name="Path 378" d="M61.2,28.631a12.624,12.624,0,0,0-6.84-3.625c-.479-.068-.889-.137-1.368-.205a13.882,13.882,0,0,0-7.593,5.883A13.081,13.081,0,0,0,44.3,32.872l.068.068h0a7.722,7.722,0,0,0,1.026.958c.068.068.137.068.205.137a18.076,18.076,0,0,0,4.036,2.394.575.575,0,0,1,.274.752,9.136,9.136,0,0,0,1.231.479.489.489,0,0,1,.616-.342h.068a35.372,35.372,0,0,0,6.43,1.573,53.3,53.3,0,0,0,6.84.547V38A13.673,13.673,0,0,0,61.2,28.631Z" transform="translate(-31.851 -23.432)" fill="#25a6df"/>
      <path id="Path_379" data-name="Path 379" d="M45.8,30.683A13.951,13.951,0,0,1,53.393,24.8h0A14.2,14.2,0,0,0,45.8,30.683Z" transform="translate(-32.325 -23.432)" fill="#25a6df"/>
      <path id="Path_380" data-name="Path 380" d="M65.568,43.936a5.123,5.123,0,0,1-5.13,5.13H60.3a13.708,13.708,0,0,1-1.847,5.062,14.932,14.932,0,0,1-5.062,5.062,24.1,24.1,0,0,1-4.583,1.642c-1.163.274-.547-.342-.342-.752l4.515-1.368a13.946,13.946,0,0,0,6.84-10.4,2.109,2.109,0,0,0,.684.068h.342a5.185,5.185,0,0,0,1.094-.205,4.595,4.595,0,0,0,2.462-6.635,4.8,4.8,0,0,0-3.147-2.189h0a2.565,2.565,0,0,0-.752-.068h-.068a1.333,1.333,0,0,0-.547.068V37.3a13.979,13.979,0,0,0-4.036-9.782,12.661,12.661,0,0,0-3.283-2.394,15.533,15.533,0,0,0-3.9-1.368,8.49,8.49,0,0,0-1.847-.205c-.274,0-.547-.068-.821-.068A13.772,13.772,0,0,0,32.188,37.37v2.052h-.342a1.506,1.506,0,0,0-.547-.068h-.41a4.982,4.982,0,0,0-1.642.479,4.809,4.809,0,0,0-2.257,2.531,3.681,3.681,0,0,0-.274,1.5,5.138,5.138,0,0,0,.342,1.778,4.168,4.168,0,0,0,1.231,1.642,4.6,4.6,0,0,0,2.941,1.094,4.516,4.516,0,0,0,.958-.068h.068A14.151,14.151,0,0,0,34.445,54.4,12.8,12.8,0,0,0,39.1,58.711h0l-.274.547-.137-.068a14,14,0,0,1-5.062-5.13,13.6,13.6,0,0,1-1.847-5.13H31.23a5.13,5.13,0,0,1,0-10.26h.342V37.233A14.436,14.436,0,0,1,46.005,22.8a12.381,12.381,0,0,1,2.736.274,14.471,14.471,0,0,1,11.7,14.159v1.436A5.334,5.334,0,0,1,65.568,43.936Z" transform="translate(-26.1 -22.8)" fill="#1a3b63"/>
      <path id="Path_381" data-name="Path 381" d="M55.153,44.572A35.372,35.372,0,0,1,48.723,43a.557.557,0,0,1-.342-.752h0c-.41-.137-.821-.342-1.231-.479h0a.575.575,0,0,1-.752.274,18.342,18.342,0,0,1-4.72-2.941,7.274,7.274,0,0,1-.958,2.12,5.709,5.709,0,0,1-.821,1.094,11.094,11.094,0,0,1-3.01,2.326c-.274.137-.616.274-.889.41v6.977c0,.547.068,1.026.068,1.573a13.715,13.715,0,0,0,1.71,5.2,13.987,13.987,0,0,0,2.736,3.283,7.141,7.141,0,0,0,2.052,1.5c.342-.616,1.094-1.847,1.5-2.394a7.874,7.874,0,0,1,.958-1.163c2.394-2.8,4.72-3.694,6.5-3.489.684.068,1.436-.342,1.847.137,1.026,1.3-.342,4.446-.616,7.935a10.623,10.623,0,0,0,3.01-1.163c.342-.205.684-.342.958-.547a12.333,12.333,0,0,0,1.163-.821A13.987,13.987,0,0,0,60.625,58.8a12.625,12.625,0,0,0,1.71-5.2,12.109,12.109,0,0,0,.068-1.573V45.256C59.873,45.119,57.41,44.914,55.153,44.572Zm-11.97,5.609" transform="translate(-29.228 -27.95)" fill="#facea4"/>
      <rect id="Rectangle_17" data-name="Rectangle 17" transform="translate(6.156 16.622)" fill="#1a3b63"/>
      <path id="Path_382" data-name="Path 382" d="M32.541,55.961h.068a11.594,11.594,0,0,1-.068-1.573V47.068H32.2A2.11,2.11,0,0,0,31.583,47h-.41a4.982,4.982,0,0,0-1.642.479,4.809,4.809,0,0,0-2.257,2.531,5.336,5.336,0,0,0-.274,1.5,5.138,5.138,0,0,0,.342,1.778,4.168,4.168,0,0,0,1.231,1.642,4.6,4.6,0,0,0,2.941,1.094A2.521,2.521,0,0,0,32.541,55.961Zm-4.925-4.378a3.97,3.97,0,0,1,3.967-3.967h.342v2.326a2.548,2.548,0,0,0-2.6,1.5.575.575,0,0,0,.274.752c.068,0,.137.068.205.068a.7.7,0,0,0,.547-.342,1.325,1.325,0,0,1,1.5-.752v3.283a5.177,5.177,0,0,0,.068,1.026h-.41A3.942,3.942,0,0,1,27.616,51.583Z" transform="translate(-26.384 -30.447)" fill="#1a3b63"/>
      <path id="Path_383" data-name="Path 383" d="M33.3,59.626a4.207,4.207,0,0,1-.958.068A4.329,4.329,0,0,1,29.4,58.6a4.6,4.6,0,0,0,2.941,1.094h0a2.277,2.277,0,0,0,.958-.068h0Z" transform="translate(-27.143 -34.112)" fill="#1a3b63"/>
      <path id="Path_384" data-name="Path 384" d="M27.374,51.4a5.336,5.336,0,0,0-.274,1.5,5.138,5.138,0,0,0,.342,1.778A5.138,5.138,0,0,1,27.1,52.9,3.9,3.9,0,0,1,27.374,51.4Z" transform="translate(-26.416 -31.837)" fill="#1a3b63"/>
      <path id="Path_385" data-name="Path 385" d="M32.752,47a1.506,1.506,0,0,1,.547.068h0A1.333,1.333,0,0,0,32.752,47h-.41a4.982,4.982,0,0,0-1.642.479A4.182,4.182,0,0,1,32.342,47Z" transform="translate(-27.553 -30.447)" fill="#1a3b63"/>
      <path id="Path_386" data-name="Path 386" d="M75.3,56.029c.205,0,.41.068.684.068h.342a5.185,5.185,0,0,0,1.094-.205,4.595,4.595,0,0,0,2.462-6.635,4.8,4.8,0,0,0-3.147-2.189h0A2.327,2.327,0,0,0,76.052,47h-.068a1.506,1.506,0,0,0-.547.068v7.387A12.211,12.211,0,0,1,75.3,56.029Zm.684-1.573V51.173a1.413,1.413,0,0,1,1.5.752.609.609,0,0,0,.547.342.251.251,0,0,0,.205-.068.575.575,0,0,0,.274-.752,2.65,2.65,0,0,0-2.6-1.5V47.547a3.912,3.912,0,0,1,3.9,3.967,3.97,3.97,0,0,1-3.967,3.967h0A2.659,2.659,0,0,0,75.984,54.456Z" transform="translate(-41.646 -30.447)" fill="#1a3b63"/>
      <path id="Path_387" data-name="Path 387" d="M80.547,49.289A4.8,4.8,0,0,0,77.4,47.1h0A4.8,4.8,0,0,1,80.547,49.289Z" transform="translate(-42.309 -30.478)" fill="#1a3b63"/>
      <path id="Path_388" data-name="Path 388" d="M75.984,60.205a2.566,2.566,0,0,1-.684-.068h0c.205,0,.479.068.684.068h.342A5.185,5.185,0,0,0,77.42,60a2.836,2.836,0,0,1-1.094.205Z" transform="translate(-41.646 -34.554)" fill="#1a3b63"/>
      <path id="Path_389" data-name="Path 389" d="M76.116,47Z" transform="translate(-41.709 -30.447)" fill="#1a3b63"/>
      <path id="Path_390" data-name="Path 390" d="M36.536,44a9.892,9.892,0,0,0,3.01-2.326,6.532,6.532,0,0,0,.821-1.094,16.111,16.111,0,0,1,.684-3.147h0l-.137-.137c0,2.8-2.8,5.746-5.814,6.7h1.436Z" transform="translate(-28.944 -27.382)" fill="#1a3b63"/>
      <path id="Path_391" data-name="Path 391" d="M35.068,47.1h0Z" transform="translate(-28.912 -30.478)" fill="#1a3b63"/>
      <path id="Path_392" data-name="Path 392" d="M40.262,68.582A13.986,13.986,0,0,1,37.526,65.3a12.625,12.625,0,0,1-1.71-5.2H35.2a13.767,13.767,0,0,0,6.84,10.4l.274-.479A13.972,13.972,0,0,1,40.262,68.582Z" transform="translate(-28.975 -34.586)" fill="#1a3b63"/>
      <rect id="Rectangle_18" data-name="Rectangle 18" transform="translate(6.225 25.514)" fill="#1a3b63"/>
      <path id="Path_393" data-name="Path 393" d="M35.616,47.51c.274-.137.616-.274.889-.41H35v7.387c0,.547.068,1.026.068,1.573h.616a12.109,12.109,0,0,1-.068-1.573Z" transform="translate(-28.912 -30.478)" fill="#1a3b63"/>
      <path id="Path_394" data-name="Path 394" d="M35.1,47.1h0v7.387c0,.547.068,1.026.068,1.573h0a11.594,11.594,0,0,1-.068-1.573Z" transform="translate(-28.944 -30.478)" fill="#1a3b63"/>
      <path id="Path_395" data-name="Path 395" d="M49.3,41.294a20.106,20.106,0,0,1-5.677-3.557l-.137-.137a12.313,12.313,0,0,0-.684,3.147,6.553,6.553,0,0,0,.958-2.12,21.271,21.271,0,0,0,4.72,2.941.633.633,0,0,0,.821-.274Z" transform="translate(-31.377 -27.476)" fill="#1a3b63"/>
      <path id="Path_396" data-name="Path 396" d="M71.625,60.1a13.715,13.715,0,0,1-1.71,5.2,13.986,13.986,0,0,1-2.736,3.283,12.333,12.333,0,0,1-1.163.821L65.4,70.566a13.946,13.946,0,0,0,6.84-10.4.411.411,0,0,1-.274-.068Z" transform="translate(-38.518 -34.586)" fill="#1a3b63"/>
      <path id="Path_397" data-name="Path 397" d="M54.08,43.7h0a.582.582,0,0,0,.342.752,35.372,35.372,0,0,0,6.43,1.573h7.866A42.046,42.046,0,0,1,54.9,43.974C54.627,43.905,54.353,43.768,54.08,43.7Z" transform="translate(-34.927 -29.404)" fill="#1a3b63"/>
      <path id="Path_398" data-name="Path 398" d="M71.251,47.647v6.772c0,.547-.068,1.026-.068,1.573h.342c.068,0,.205.068.274.068a12.212,12.212,0,0,0,.137-1.573V47.1H64A48.77,48.77,0,0,0,71.251,47.647Z" transform="translate(-38.075 -30.478)" fill="#1a3b63"/>
      <path id="Path_399" data-name="Path 399" d="M58.247,24.105a13.105,13.105,0,0,1,3.967,1.436.067.067,0,0,1-.068-.068,15.533,15.533,0,0,0-3.9-1.368A8.49,8.49,0,0,0,56.4,23.9h0Z" transform="translate(-35.674 -23.148)" fill="#1a3b63"/>
      <path id="Path_400" data-name="Path 400" d="M56.021,23.868c-.274,0-.547-.068-.821-.068a3.615,3.615,0,0,0,.821.068Z" transform="translate(-35.295 -23.116)" fill="#1a3b63"/>
      <path id="Path_401" data-name="Path 401" d="M68.083,28.694a13.692,13.692,0,0,1,4.036,9.782v2.052h0V38.476a13.979,13.979,0,0,0-4.036-9.782A12.661,12.661,0,0,0,64.8,26.3a.067.067,0,0,1,.068.068A13.281,13.281,0,0,1,68.083,28.694Z" transform="translate(-38.328 -23.906)" fill="#1a3b63"/>
      <path id="Path_402" data-name="Path 402" d="M35.1,37.686v2.052c3.078-1.026,5.814-3.967,5.814-6.7h0l.137.137h0l.205-.616a.656.656,0,0,0-.616-.137.6.6,0,0,0-.41.547,5.447,5.447,0,0,1-1.642,3.625,9.208,9.208,0,0,1-3.078,2.257V37.686a13.283,13.283,0,0,1,13.27-13.27,5.884,5.884,0,0,1,1.094.068h0c.479-.137.958-.274,1.5-.41a8.49,8.49,0,0,0-1.847-.205c-.274,0-.547-.068-.821-.068a13.94,13.94,0,0,0-6.567,1.642A14.115,14.115,0,0,0,35.1,37.686Z" transform="translate(-28.944 -23.116)" fill="#1a3b63"/>
      <rect id="Rectangle_19" data-name="Rectangle 19" transform="translate(21.068 1.368)" fill="#1a3b63"/>
      <path id="Path_403" data-name="Path 403" d="M52.987,23.868c-.274,0-.547-.068-.821-.068A13.94,13.94,0,0,0,45.6,25.442,13.366,13.366,0,0,1,52.167,23.8,3.615,3.615,0,0,0,52.987,23.868Z" transform="translate(-32.261 -23.116)" fill="#1a3b63"/>
      <path id="Path_404" data-name="Path 404" d="M43.6,37.3h0l.137.137Z" transform="translate(-31.63 -27.382)" fill="#1a3b63"/>
      <path id="Path_405" data-name="Path 405" d="M43.937,37.352a17.684,17.684,0,0,0,5.677,3.557.575.575,0,0,0-.274-.752A22.1,22.1,0,0,1,45.3,37.763c-.068-.068-.137-.068-.205-.137a7.722,7.722,0,0,1-1.026-.958h0l-.068-.068h0l-.205.616Z" transform="translate(-31.693 -27.16)" fill="#1a3b63"/>
      <path id="Path_406" data-name="Path 406" d="M44.3,36.7a7.722,7.722,0,0,0,1.026.958A4.561,4.561,0,0,1,44.3,36.7Z" transform="translate(-31.851 -27.192)" fill="#1a3b63"/>
      <path id="Path_407" data-name="Path 407" d="M44.2,36.6Z" transform="translate(-31.819 -27.16)" fill="#1a3b63"/>
      <path id="Path_408" data-name="Path 408" d="M49.677,41.357A20.106,20.106,0,0,1,44,37.8a20.106,20.106,0,0,0,5.677,3.557Z" transform="translate(-31.756 -27.54)" fill="#1a3b63"/>
      <path id="Path_409" data-name="Path 409" d="M64.734,28.031a14.059,14.059,0,0,0-3.215-2.394A13.105,13.105,0,0,0,57.552,24.2a6.168,6.168,0,0,0-1.5.41,8.207,8.207,0,0,1,1.368.205,13.089,13.089,0,0,1,6.84,3.625,13.373,13.373,0,0,1,3.9,9.371v1.436h0a43.308,43.308,0,0,1-6.84-.547,35.372,35.372,0,0,1-6.43-1.573h-.068a.489.489,0,0,0-.616.342c.274.068.547.205.821.274A42.046,42.046,0,0,0,68.838,39.8V37.744A14.307,14.307,0,0,0,64.734,28.031Z" transform="translate(-34.979 -23.242)" fill="#1a3b63"/>
      <path id="Path_410" data-name="Path 410" d="M58.268,25.005A13.256,13.256,0,0,1,69.007,38v1.436h0V38a13.256,13.256,0,0,0-10.739-13c-.479-.068-.889-.137-1.368-.205h0C57.379,24.868,57.858,24.937,58.268,25.005Z" transform="translate(-35.832 -23.432)" fill="#1a3b63"/>
      <path id="Path_411" data-name="Path 411" d="M55,43.1h.068a35.372,35.372,0,0,0,6.43,1.573,35.372,35.372,0,0,1-6.43-1.573S55.068,43.168,55,43.1Z" transform="translate(-35.232 -29.214)" fill="#1a3b63"/>
      <path id="Path_412" data-name="Path 412" d="M68.115,28.694A14.059,14.059,0,0,0,64.9,26.3a15.724,15.724,0,0,1,3.215,2.394,13.692,13.692,0,0,1,4.036,9.782v2.052h0V38.476A13.979,13.979,0,0,0,68.115,28.694Z" transform="translate(-38.36 -23.906)" fill="#1a3b63"/>
      <path id="Path_413" data-name="Path 413" d="M54.921,43.974c-.274-.068-.547-.205-.821-.274h0C54.374,43.768,54.647,43.905,54.921,43.974Z" transform="translate(-34.947 -29.404)" fill="#1a3b63"/>
      <circle id="Ellipse_5" data-name="Ellipse 5" transform="matrix(-0.8, 0.6, -0.6, -0.8, 25.798, 36.487)" fill="#1a3b63"/>
      <path id="Path_414" data-name="Path 414" d="M48,78.4Z" transform="translate(-33.02 -40.368)" fill="#1a3b63"/>
      <path id="Path_415" data-name="Path 415" d="M47.305,77.937c-.068-.068-.137-.068-.205-.137C47.168,77.868,47.237,77.868,47.305,77.937Z" transform="translate(-32.735 -40.179)" fill="#1a3b63"/>
      <path id="Path_416" data-name="Path 416" d="M45.2,75.4Z" transform="translate(-32.135 -39.42)" fill="#1a3b63"/>
      <path id="Path_417" data-name="Path 417" d="M48.876,78.8Z" transform="translate(-33.281 -40.495)" fill="#1a3b63"/>
      <path id="Path_418" data-name="Path 418" d="M50.637,79.3h0Z" transform="translate(-33.81 -40.653)" fill="#1a3b63"/>
      <path id="Path_419" data-name="Path 419" d="M49.737,79.068c-.068,0-.137,0-.137-.068C49.668,79.068,49.668,79.068,49.737,79.068Z" transform="translate(-33.525 -40.558)" fill="#1a3b63"/>
      <path id="Path_420" data-name="Path 420" d="M46.6,77.3h0a1.492,1.492,0,0,0,.342.274A1.2,1.2,0,0,1,46.6,77.3Z" transform="translate(-32.577 -40.021)" fill="#1a3b63"/>
      <path id="Path_421" data-name="Path 421" d="M45.2,75.4Z" transform="translate(-32.135 -39.42)" fill="#1a3b63"/>
      <path id="Path_422" data-name="Path 422" d="M59.877,75.41,59.4,76.3c-.137.205,3.147-1.094,3.01-.889a7.475,7.475,0,0,0,1.026-.547h0l.616-1.163A14.821,14.821,0,0,1,59.877,75.41Z" transform="translate(-36.62 -38.883)" fill="#1a3b63"/>
      <path id="Path_423" data-name="Path 423" d="M64.826,75.4h0c-.342.205-.684.342-1.026.547h0C64.142,75.742,64.484,75.605,64.826,75.4Z" transform="translate(-38.012 -39.42)" fill="#1a3b63"/>
      <path id="Path_424" data-name="Path 424" d="M66.4,54.656a.47.47,0,0,0-.205-.616L65.1,53.425l1.094-.616a.459.459,0,0,0-.41-.821l-1.915.958a.462.462,0,0,0-.274.41.425.425,0,0,0,.274.41l1.915.958a.251.251,0,0,0,.205.068C66.2,54.929,66.336,54.793,66.4,54.656Z" transform="translate(-37.949 -32.015)" fill="#1a3b63"/>
      <path id="Path_425" data-name="Path 425" d="M43.868,54.705a.462.462,0,0,0,.41.274.251.251,0,0,0,.205-.068l1.915-.958a.462.462,0,0,0,.274-.41.425.425,0,0,0-.274-.41l-1.915-.958a.459.459,0,1,0-.41.821l1.094.616-1.094.479A.417.417,0,0,0,43.868,54.705Z" transform="translate(-31.693 -32.064)" fill="#1a3b63"/>
      <path id="Path_426" data-name="Path 426" d="M40.4,73.661l4.309,2.257,5.062,2.462L55.38,67.094,53.4,64.7l-7.8,2.736Z" transform="translate(-30.618 -36.039)" fill="#66c6bb"/>
      <g id="Group_16" data-name="Group 16" transform="translate(8.181 28.029)">
        <path id="Path_427" data-name="Path 427" d="M55.051,65.5a2.319,2.319,0,0,0-1.163-1.368c-1.573-.821-4.583-.205-7.8,1.573-.41.274-.889.479-1.3.752a9.83,9.83,0,0,0-1.71,1.231,1.2,1.2,0,0,0-.342.274l-.137.068-.479.479h0l-.547.479-.274.274a16.644,16.644,0,0,0-3.147,4.241.526.526,0,0,0,.068.684.842.842,0,0,0,.684.342l2.052-.068a.95.95,0,0,1,.684.342l1.163,1.642a2.613,2.613,0,0,0,1.915.958h0l2.052-.068a.95.95,0,0,1,.684.342l1.163,1.642a.816.816,0,0,0,.616.342h0a.786.786,0,0,0,.616-.41c.479-.889.958-1.778,1.368-2.668.205-.41.479-.889.684-1.3.137-.205.205-.41.342-.616h0l.274-.616h0l.274-.479h0l.274-.547c.068-.068.068-.205.137-.274C54.641,69.607,55.53,67.144,55.051,65.5ZM51.563,72.48a6.254,6.254,0,0,1-.479.958,4.062,4.062,0,0,1-.274.547h0c-.068.205-.205.342-.274.547s-.205.342-.274.547c-.137.274-.274.479-.41.752-.274.547-.547,1.026-.821,1.573l-.479-.616a2.613,2.613,0,0,0-1.915-.958l-2.052.068a.517.517,0,0,1-.274-.068,2.129,2.129,0,0,1-.41-.274l-1.163-1.642a2.613,2.613,0,0,0-1.915-.958H40.14A16.475,16.475,0,0,1,42.123,70.5l.41-.41a2.974,2.974,0,0,1,.479-.41.239.239,0,0,1,.137-.068,8.467,8.467,0,0,1,1.231-.958,6.2,6.2,0,0,1,1.094-.752,14.473,14.473,0,0,1,1.368-.821c3.01-1.642,5.472-1.984,6.43-1.5a.85.85,0,0,1,.41.547C54.025,67.144,53,69.675,51.563,72.48Z" transform="translate(-38.061 -63.776)" fill="#1a3b63"/>
        <path id="Path_428" data-name="Path 428" d="M54.778,70.252a13.2,13.2,0,0,0-3.967,1.915h-.068a.067.067,0,0,0-.068.068.972.972,0,0,1-.41.137.718.718,0,0,1-.616-.342.665.665,0,0,1-.068-.616c.068-.137.137-.342.274-.41h.068a15.9,15.9,0,0,1,4.515-2.12.778.778,0,0,1,.958.547A1.049,1.049,0,0,1,54.778,70.252Z" transform="translate(-41.686 -65.379)" fill="#1a3b63"/>
      </g>
    </g>
  </g>
</svg>
