<svg xmlns="http://www.w3.org/2000/svg" width="17.563" height="14.643" viewBox="0 0 17.563 14.643">
  <g id="Group_47" data-name="Group 47" transform="translate(-36.75 -794.607)">
    <path id="Path_558" data-name="Path 558" d="M1974.531,817.5h6.78l.862-.872.741-.635v-6.984l-.741-1.124-.862-1.038h-2.444l-1.561-.847V804.9h-1.267l-2.038-.777-1.285.777L1971.452,806l-1.146.847h-2.917l-.617,1.038v8.743l.617.872h7.143Z" transform="translate(-1929 -9)" fill="#52d09a"/>
    <g id="Icon_feather-camera" data-name="Icon feather-camera" transform="translate(36 790.857)">
      <path id="Path_556" data-name="Path 556" d="M17.563,16.182a1.46,1.46,0,0,1-1.46,1.46H2.96a1.46,1.46,0,0,1-1.46-1.46V8.151A1.46,1.46,0,0,1,2.96,6.69H5.881L7.341,4.5h4.381l1.46,2.19H16.1a1.46,1.46,0,0,1,1.46,1.46Z" fill="none" stroke="#191919" stroke-linecap="round" stroke-linejoin="round" stroke-width="1.5"/>
      <path id="Path_557" data-name="Path 557" d="M17.841,16.421A2.921,2.921,0,1,1,14.921,13.5,2.921,2.921,0,0,1,17.841,16.421Z" transform="translate(-5.389 -4.619)" fill="none" stroke="#191919" stroke-linecap="round" stroke-linejoin="round" stroke-width="1.5"/>
    </g>
  </g>
</svg>
