<svg xmlns="http://www.w3.org/2000/svg" width="73.464" height="73.464" viewBox="0 0 73.464 73.464">
  <g id="icon-07" transform="translate(-1.3 -1.3)">
    <circle id="Ellipse_6" data-name="Ellipse 6" cx="36.732" cy="36.732" r="36.732" transform="translate(1.3 1.3)" fill="#23a9e1" opacity="0.2"/>
    <g id="Group_28" data-name="Group 28" transform="translate(15.596 16.28)">
      <g id="Group_27" data-name="Group 27" transform="translate(0 9.645)">
        <g id="Group_18" data-name="Group 18" transform="translate(0.479 18.606)">
          <path id="Path_429" data-name="Path 429" d="M47.935,71.272H23.652a.759.759,0,0,1-.752-.752V64.5H48.688v6.019A.759.759,0,0,1,47.935,71.272Z" transform="translate(-22.9 -64.5)" fill="#4297d3"/>
        </g>
        <g id="Group_19" data-name="Group 19" transform="translate(0.479 14.228)">
          <path id="Path_430" data-name="Path 430" d="M48.688,62.478H22.9L27.825,58.1H43.763Z" transform="translate(-22.9 -58.1)" fill="#4297d3"/>
        </g>
        <g id="Group_20" data-name="Group 20" transform="translate(0 18.127)">
          <path id="Path_431" data-name="Path 431" d="M47.714,71.529H23.431A1.226,1.226,0,0,1,22.2,70.3V64.279a.468.468,0,0,1,.479-.479H48.467a.468.468,0,0,1,.479.479V70.3A1.272,1.272,0,0,1,47.714,71.529ZM23.158,64.758V70.3a.294.294,0,0,0,.274.274H47.714a.294.294,0,0,0,.274-.274V64.758Z" transform="translate(-22.2 -63.8)" fill="#183a63"/>
        </g>
        <g id="Group_21" data-name="Group 21" transform="translate(0.042 13.817)">
          <path id="Path_432" data-name="Path 432" d="M48.486,62.767H22.7a.462.462,0,0,1-.41-.274.532.532,0,0,1,.137-.547l4.925-4.309a.522.522,0,0,1,.342-.137H43.7c.137,0,.205.068.342.137l4.925,4.309a.532.532,0,0,1,.137.547C48.828,62.63,48.691,62.767,48.486,62.767Zm-24.557-.958H47.186l-3.831-3.42H27.76Z" transform="translate(-22.261 -57.5)" fill="#183a63"/>
        </g>
        <g id="Group_22" data-name="Group 22" transform="translate(5.609 16.211)">
          <path id="Path_433" data-name="Path 433" d="M45.722,61.958H30.879a.479.479,0,0,1,0-.958H45.722a.479.479,0,0,1,0,.958Z" transform="translate(-30.4 -61)" fill="#183a63"/>
        </g>
        <g id="Group_23" data-name="Group 23" transform="translate(6.84 0.547)">
          <path id="Path_434" data-name="Path 434" d="M33.089,51.781,32.2,43.3l3.42-.752V38.51l6.567-.41v3.283l3.694.684-.274,8.482L44.17,54.243H34.526Z" transform="translate(-32.2 -38.1)" fill="#65c6bb"/>
        </g>
        <g id="Group_24" data-name="Group 24" transform="translate(6.361 0.068)">
          <path id="Path_435" data-name="Path 435" d="M43.949,54.5H34.3a.488.488,0,0,1-.41-.205l-1.436-2.462c0-.068-.068-.137-.068-.205L31.5,43.146a.542.542,0,0,1,.342-.547l3.01-.616V38.358a.457.457,0,0,1,.41-.479l6.567-.479a.468.468,0,0,1,.479.479V40.82l3.283.547a.587.587,0,0,1,.41.479l-.274,8.482v.137L44.36,54.227A.462.462,0,0,1,43.949,54.5Zm-9.371-.958h9.029l1.3-3.352.205-7.935-3.283-.547a.512.512,0,0,1-.41-.479v-2.8l-5.609.41v3.557a.5.5,0,0,1-.41.479l-3.01.616.821,8Z" transform="translate(-31.5 -37.4)" fill="#183a63"/>
        </g>
        <g id="Group_25" data-name="Group 25" transform="translate(10.534 10.124)">
          <path id="Path_436" data-name="Path 436" d="M43.209,59.145h-3.9a.375.375,0,0,1-.41-.274l-1.231-2.462c0-.068-.068-.137-.068-.205V54.562a.479.479,0,0,1,.958,0v1.573l1.094,2.12h3.215l.479-2.052V52.579a.479.479,0,1,1,.958,0v3.762L43.756,58.8A.609.609,0,0,1,43.209,59.145Z" transform="translate(-37.6 -52.1)" fill="#183a63"/>
        </g>
        <g id="Group_26" data-name="Group 26" transform="translate(9.782)">
          <path id="Path_437" data-name="Path 437" d="M37.458,47.082a.587.587,0,0,1-.479-.41L36.5,42.362v-4.1a.457.457,0,0,1,.41-.479l6.567-.479a.468.468,0,0,1,.479.479v3.352l-.137,3.42a.479.479,0,1,1-.958,0L43,41.131v-2.8l-5.609.41v3.557l.479,4.309a.378.378,0,0,1-.41.479Z" transform="translate(-36.5 -37.3)" fill="#183a63"/>
        </g>
      </g>
      <circle id="Ellipse_7" data-name="Ellipse 7" cx="1.3" cy="1.3" r="1.3" transform="translate(25.104 38.989)" fill="#65c6bb"/>
      <path id="Path_438" data-name="Path 438" d="M77,55.129a4.754,4.754,0,0,1-3.215.342h-.068V66.484a.7.7,0,0,1-.684.684H66.4l.41.889a2.438,2.438,0,0,0,2.531,1.368h7.387a2.966,2.966,0,0,0,2.052-.889,2.9,2.9,0,0,0,.821-2.052V54.992l-.479-.137A2.908,2.908,0,0,0,77,55.129Z" transform="translate(-36.166 -33.172)" fill="#23a9e1"/>
      <path id="Path_439" data-name="Path 439" d="M73.719,46.246v3.625l.41.137a3.026,3.026,0,0,0,2.189-.205,4.562,4.562,0,0,1,3.147-.342H79.6V44.673A2.853,2.853,0,0,0,76.934,41.8H69.068A2.9,2.9,0,0,0,66.4,44.673v.821h6.635A.8.8,0,0,1,73.719,46.246Z" transform="translate(-36.166 -29.077)" fill="#23a9e1"/>
      <path id="Path_440" data-name="Path 440" d="M77.935,36.684A.8.8,0,0,0,77.251,36H71.916a.632.632,0,0,0-.616.684V38.6h6.635Z" transform="translate(-37.714 -27.244)" fill="#65c6bb"/>
      <rect id="Rectangle_20" data-name="Rectangle 20" width="4.651" height="3.078" transform="translate(34.612 1.368)" fill="#65c6bb"/>
      <rect id="Rectangle_21" data-name="Rectangle 21" width="1.984" height="1.573" transform="translate(35.911 5.814)" fill="#23a9e1"/>
      <path id="Path_441" data-name="Path 441" d="M66.742,53.473a2.1,2.1,0,0,1,2.8.137,2.183,2.183,0,0,1,.274,2.8,2.133,2.133,0,0,1,1.094,1.642,2.168,2.168,0,0,1-.752,1.847l-.684.547a1.844,1.844,0,0,1,.547.479h0A2.165,2.165,0,0,1,70.5,62.5a2.276,2.276,0,0,1-.752,1.436l-.137.068h2.736V49.3H66.4v3.831a1.021,1.021,0,0,1,.205.479Z" transform="translate(-36.166 -31.447)" fill="#65c6bb"/>
      <path id="Path_442" data-name="Path 442" d="M68.525,67.543a.757.757,0,0,0-.958-.274.239.239,0,0,0-.137.068L64.9,69.39l.068,1.847L68.32,68.5A.7.7,0,0,0,68.525,67.543Z" transform="translate(-35.692 -37.104)" fill="#65c6bb"/>
      <path id="Path_443" data-name="Path 443" d="M64.637,55.837h0L64.5,55.7l.068,1.163A.821.821,0,0,0,64.637,55.837Z" transform="translate(-35.566 -33.469)" fill="#65c6bb"/>
      <path id="Path_444" data-name="Path 444" d="M65.216,60.355l1.642-1.368h0l1.094-.889a.732.732,0,1,0-.889-1.163L65.421,58.3h0l-.821.684.068,1.847Z" transform="translate(-35.597 -33.815)" fill="#65c6bb"/>
      <path id="Path_445" data-name="Path 445" d="M66.578,64.378c.068-.068.137-.068.205-.137a.067.067,0,0,1,.068-.068L68.767,62.6a.653.653,0,0,0,.205-.821.824.824,0,0,0-.684-.479,1.268,1.268,0,0,0-.479.137h0L66.168,62.8,64.8,63.968l.068,1.847Z" transform="translate(-35.66 -35.239)" fill="#65c6bb"/>
      <circle id="Ellipse_8" data-name="Ellipse 8" cx="1.3" cy="1.3" r="1.3" transform="translate(16.895 39.537)" fill="#65c6bb"/>
      <path id="Path_446" data-name="Path 446" d="M59.682,40.657A1.892,1.892,0,0,0,60.3,38.4l-1.642-2.6-1.642,2.6a1.772,1.772,0,0,0,.342,2.052A1.855,1.855,0,0,0,59.682,40.657Z" transform="translate(-33.141 -27.181)" fill="#23a9e1"/>
      <path id="Path_447" data-name="Path 447" d="M68.605,55.8a.251.251,0,0,0-.205.068A.251.251,0,0,1,68.605,55.8Z" transform="translate(-36.798 -33.501)" fill="#183a63"/>
      <path id="Path_448" data-name="Path 448" d="M70.8,58.605c0-.068.068-.137.068-.205C70.868,58.468,70.8,58.537,70.8,58.605Z" transform="translate(-37.556 -34.322)" fill="#183a63"/>
      <path id="Path_449" data-name="Path 449" d="M70.5,59.037c.068-.068.068-.068.068-.137C70.568,58.968,70.568,58.968,70.5,59.037Z" transform="translate(-37.462 -34.48)" fill="#183a63"/>
      <path id="Path_450" data-name="Path 450" d="M70.3,56.963a1.341,1.341,0,0,0-.889-1.094A1.894,1.894,0,0,0,68.8,55.8a1.485,1.485,0,0,1,1.231.547,1.448,1.448,0,0,1,.274,1.3Z" transform="translate(-36.924 -33.501)" fill="#183a63"/>
      <path id="Path_451" data-name="Path 451" d="M75.543,34.623V32.64a2.1,2.1,0,0,0-2.052-2.052h-.342V29.014h.616a.7.7,0,0,0,.752-.684V23.884a.7.7,0,0,0-.752-.684H67.814a.7.7,0,0,0-.684.684v1.642a3.441,3.441,0,0,0-1.915-.684l-5.13-.068h0a.685.685,0,0,0-.684.684.646.646,0,0,0,.684.684l5.13.068a1.887,1.887,0,0,1,1.915,1.984.251.251,0,0,0,.068.205.666.666,0,0,0,.684.547H68.5v1.642h-.274A2,2,0,0,0,66.24,32.64v1.984A4.455,4.455,0,0,0,62.889,38.8V44.61a1.156,1.156,0,0,1,.684.479V38.8a3.646,3.646,0,0,1,3.352-3.625V32.64a1.3,1.3,0,0,1,1.3-1.3H69.25V28.4h-1.3V23.952H73.9V28.4H72.6v2.873h.889a1.3,1.3,0,0,1,1.3,1.3v2.6A3.65,3.65,0,0,1,78.142,38.8V56.444a3.649,3.649,0,0,1-3.625,3.625H67.129a4.623,4.623,0,0,1-3.489-2.189l-.342.274.137.41.137.274a5.024,5.024,0,0,0,3.557,1.915h7.387a4.3,4.3,0,0,0,3.01-1.231,4.244,4.244,0,0,0,1.231-3.01V38.8A4.181,4.181,0,0,0,75.543,34.623Z" transform="translate(-33.954 -23.2)" fill="#183a63"/>
      <path id="Path_452" data-name="Path 452" d="M68.137,55.9c-.068,0-.068.068-.137.068C68.068,55.9,68.068,55.9,68.137,55.9Z" transform="translate(-36.672 -33.532)" fill="#183a63"/>
      <path id="Path_453" data-name="Path 453" d="M76.408,54.2a3.759,3.759,0,0,1-2.736.274l-.889-.274V66.1H65.6v1.5A4.623,4.623,0,0,0,69.089,69.8h7.387A3.649,3.649,0,0,0,80.1,66.17V54.2l-.958-.274A3.505,3.505,0,0,0,76.408,54.2Zm3.01,11.97a2.9,2.9,0,0,1-.821,2.052,2.966,2.966,0,0,1-2.052.889H69.089c-.889,0-2.189-.205-2.531-1.368l-.616-.889h6.84a.7.7,0,0,0,.684-.684V55.089h.068a4.35,4.35,0,0,0,3.215-.342,3.026,3.026,0,0,1,2.189-.205l.479.137V66.17Z" transform="translate(-35.913 -32.858)" fill="#183a63"/>
      <path id="Path_454" data-name="Path 454" d="M72.719,50.071l.889.274a3.829,3.829,0,0,0,2.736-.274,3.616,3.616,0,0,1,2.668-.274l1.026.274V44.325A3.646,3.646,0,0,0,76.686,40.7H68.752A3.65,3.65,0,0,0,65.4,44.325V45.9h7.319v4.173Zm-6.635-4.857v-.889a2.853,2.853,0,0,1,2.668-2.873h7.866a2.9,2.9,0,0,1,2.668,2.873v4.788h-.137A4.175,4.175,0,0,0,76,49.456a3.058,3.058,0,0,1-2.189.205l-.41-.137V45.9a.7.7,0,0,0-.684-.752H66.084Z" transform="translate(-35.85 -28.73)" fill="#183a63"/>
      <path id="Path_455" data-name="Path 455" d="M77.929,38.931H78.2V36.4a1.3,1.3,0,0,0-1.3-1.3H71.5a1.3,1.3,0,0,0-1.3,1.3V39h7.729ZM70.952,36.4a.727.727,0,0,1,.616-.684H76.9a.685.685,0,0,1,.684.684v1.915H70.952Z" transform="translate(-37.367 -26.96)" fill="#183a63"/>
      <path id="Path_456" data-name="Path 456" d="M77.751,28.646V24.2H71.8v4.446h5.951Zm-5.267-.752V24.816h4.651v3.078Z" transform="translate(-37.872 -23.516)" fill="#183a63"/>
      <path id="Path_457" data-name="Path 457" d="M77.052,30.7H73.7v2.941h3.352ZM76.3,32.957H74.316V31.384H76.3Z" transform="translate(-38.473 -25.57)" fill="#183a63"/>
      <path id="Path_458" data-name="Path 458" d="M65.2,55.1l1.642-1.368a.519.519,0,0,1,.274-.137c.068,0,.068-.068.137-.068s.068,0,.137-.068a.251.251,0,0,0,.205-.068h.068a1.894,1.894,0,0,1,.616.068,1.441,1.441,0,0,1,.889,1.094,1.894,1.894,0,0,1-.068.616v.068c0,.068-.068.137-.068.205s-.068.068-.068.137-.068.068-.068.137l-.205.205-1.094.889A1.41,1.41,0,1,1,69.373,59l-1.915,1.573v.068a1.5,1.5,0,0,1,1.847.547,1.372,1.372,0,0,1-.274,1.847l-2.873.616v.684h6.635V48.4H65.337v4.72h0A1.35,1.35,0,0,1,65.2,55.1Zm.821-6.088h5.951V63.722H69.236l.137-.068a2.153,2.153,0,0,0,.274-3.01h0a1.844,1.844,0,0,0-.547-.479l.684-.547a2.168,2.168,0,0,0,.752-1.847,2.133,2.133,0,0,0-1.094-1.642,2.1,2.1,0,0,0-.274-2.8,2.175,2.175,0,0,0-2.8-.137l-.137.068c-.068-.137-.137-.342-.205-.479Z" transform="translate(-35.787 -31.163)" fill="#183a63"/>
      <path id="Path_459" data-name="Path 459" d="M67.874,56c-.068.068-.205.068-.274.137A.355.355,0,0,1,67.874,56Z" transform="translate(-36.545 -33.564)" fill="#183a63"/>
      <path id="Path_460" data-name="Path 460" d="M68.337,55.8c-.068,0-.068,0-.137.068C68.268,55.8,68.268,55.8,68.337,55.8Z" transform="translate(-36.735 -33.501)" fill="#183a63"/>
      <path id="Path_461" data-name="Path 461" d="M70.9,58.4Z" transform="translate(-37.588 -34.322)" fill="#183a63"/>
      <path id="Path_462" data-name="Path 462" d="M70.7,58.837c0-.068.068-.068.068-.137C70.7,58.768,70.7,58.768,70.7,58.837Z" transform="translate(-37.525 -34.417)" fill="#183a63"/>
      <path id="Path_463" data-name="Path 463" d="M68.7,55.8Z" transform="translate(-36.893 -33.501)" fill="#183a63"/>
      <path id="Path_464" data-name="Path 464" d="M70.2,59.305l.205-.205C70.405,59.168,70.268,59.237,70.2,59.305Z" transform="translate(-37.367 -34.543)" fill="#183a63"/>
      <path id="Path_465" data-name="Path 465" d="M56.015,40.766a3.1,3.1,0,0,0,3.967,0,3.263,3.263,0,0,0,.889-3.9A.067.067,0,0,0,60.8,36.8l-2.257-3.557a.718.718,0,0,0-.616-.342.816.816,0,0,0-.616.342L55.058,36.8a.067.067,0,0,1-.068.068A3.438,3.438,0,0,0,56.015,40.766Zm-.274-3.625L58,33.584l2.257,3.557a2.517,2.517,0,0,1-.684,3.01,2.475,2.475,0,0,1-3.147,0A2.408,2.408,0,0,1,55.742,37.141Z" transform="translate(-32.485 -26.265)" fill="#183a63"/>
      <path id="Path_466" data-name="Path 466" d="M56.762,40.567a2.475,2.475,0,0,0,3.147,0,2.447,2.447,0,0,0,.684-3.01L58.336,34l-2.257,3.557A2.447,2.447,0,0,0,56.762,40.567Zm-.068-2.736,1.642-2.6,1.642,2.6a1.829,1.829,0,0,1-.616,2.257,1.8,1.8,0,0,1-2.668-2.257Z" transform="translate(-32.821 -26.613)" fill="#183a63"/>
      <path id="Path_467" data-name="Path 467" d="M47.568,79a2.668,2.668,0,1,0,2.668,2.668A2.671,2.671,0,0,0,47.568,79Zm0,4.651a1.984,1.984,0,1,1,1.984-1.984A1.985,1.985,0,0,1,47.568,83.651Z" transform="translate(-29.373 -40.831)" fill="#183a63"/>
      <path id="Path_468" data-name="Path 468" d="M47.884,80a1.984,1.984,0,1,0,1.984,1.984A1.985,1.985,0,0,0,47.884,80Zm0,3.283a1.3,1.3,0,1,1,1.3-1.3A1.258,1.258,0,0,1,47.884,83.283Z" transform="translate(-29.689 -41.147)" fill="#183a63"/>
      <path id="Path_469" data-name="Path 469" d="M59.568,78.2a2.668,2.668,0,0,0,0,5.335,2.716,2.716,0,0,0,2.668-2.668A2.628,2.628,0,0,0,59.568,78.2Zm0,4.651a1.984,1.984,0,1,1,1.984-1.984A1.985,1.985,0,0,1,59.568,82.851Z" transform="translate(-33.164 -40.579)" fill="#183a63"/>
      <path id="Path_470" data-name="Path 470" d="M59.884,79.2a1.984,1.984,0,1,0,1.984,1.984A1.985,1.985,0,0,0,59.884,79.2Zm0,3.283a1.3,1.3,0,1,1,1.3-1.3A1.3,1.3,0,0,1,59.884,82.483Z" transform="translate(-33.48 -40.895)" fill="#183a63"/>
      <path id="Path_471" data-name="Path 471" d="M65.116,50.7h.752V65.133a2.9,2.9,0,0,0,.821,2.052,2.966,2.966,0,0,0,2.052.889h1.71v1.368h-1.71a4.3,4.3,0,0,1-3.01-1.231A4.244,4.244,0,0,1,64.5,65.2V50.7Z" transform="translate(-35.566 -31.889)" fill="#183a63"/>
      <rect id="Rectangle_22" data-name="Rectangle 22" width="5.472" height="13.749" transform="translate(30.234 18.811)" fill="#65c6bb"/>
    </g>
  </g>
</svg>
