<svg xmlns="http://www.w3.org/2000/svg" width="73.464" height="73.464" viewBox="0 0 73.464 73.464">
  <g id="icon-03" transform="translate(-1.3 -1.3)">
    <circle id="Ellipse_2" data-name="Ellipse 2" cx="36.732" cy="36.732" r="36.732" transform="translate(1.3 1.3)" fill="#25a6df" opacity="0.2"/>
    <g id="Group_12" data-name="Group 12" transform="translate(16.622 16.622)">
      <path id="Path_337" data-name="Path 337" d="M65.479,68.077H25.6V46.735h9.645V40.1h21v6.635h9.234Z" transform="translate(-24.3 -28.882)" fill="#25a6df"/>
      <rect id="Rectangle_6" data-name="Rectangle 6" width="2.941" height="6.361" transform="translate(13.475 15.733)" fill="#66c6bb"/>
      <rect id="Rectangle_7" data-name="Rectangle 7" width="9.371" height="1.163" transform="translate(0.958 15.801)" fill="#66c6bb"/>
      <rect id="Rectangle_8" data-name="Rectangle 8" width="9.371" height="2.12" transform="translate(32.491 15.185)" fill="#66c6bb"/>
      <rect id="Rectangle_9" data-name="Rectangle 9" width="2.873" height="6.361" transform="translate(19.837 15.733)" fill="#66c6bb"/>
      <rect id="Rectangle_10" data-name="Rectangle 10" width="11.355" height="7.935" transform="translate(15.869 0.958)" fill="#66c6bb"/>
      <rect id="Rectangle_11" data-name="Rectangle 11" width="23.804" height="2.052" transform="translate(9.303 8.892)" fill="#25a6df"/>
      <rect id="Rectangle_12" data-name="Rectangle 12" width="42.068" height="2.052" transform="translate(0.684 39.947)" fill="#66c6bb"/>
      <rect id="Rectangle_13" data-name="Rectangle 13" width="2.873" height="6.361" transform="translate(26.472 15.801)" fill="#66c6bb"/>
      <rect id="Rectangle_14" data-name="Rectangle 14" width="2.941" height="6.361" transform="translate(5.199 25.446)" fill="#66c6bb"/>
      <rect id="Rectangle_15" data-name="Rectangle 15" width="11.492" height="9.782" transform="translate(15.733 29.55)" fill="#66c6bb"/>
      <rect id="Rectangle_16" data-name="Rectangle 16" width="2.873" height="6.361" transform="translate(35.159 25.583)" fill="#66c6bb"/>
      <g id="Group_11" data-name="Group 11">
        <path id="Path_338" data-name="Path 338" d="M46.136,53.6a.613.613,0,0,0,.616-.616V46.216a.613.613,0,0,0-.616-.616h-3.42a.613.613,0,0,0-.616.616v6.772a.613.613,0,0,0,.616.616h3.42ZM43.4,46.9h2.12v5.472H43.4Z" transform="translate(-29.514 -30.62)" fill="#1a3b63"/>
        <path id="Path_339" data-name="Path 339" d="M52.216,53.6h3.42a.613.613,0,0,0,.616-.616V46.216a.613.613,0,0,0-.616-.616h-3.42a.613.613,0,0,0-.616.616v6.772A.613.613,0,0,0,52.216,53.6Zm.616-6.7h2.12v5.472h-2.12Z" transform="translate(-32.516 -30.62)" fill="#1a3b63"/>
        <path id="Path_340" data-name="Path 340" d="M33.436,67.8a.613.613,0,0,0,.616-.616V60.416a.613.613,0,0,0-.616-.616h-3.42a.613.613,0,0,0-.616.616v6.772a.613.613,0,0,0,.616.616ZM30.7,61.1h2.12v5.472H30.7V61.1Z" transform="translate(-25.501 -35.107)" fill="#1a3b63"/>
        <path id="Path_341" data-name="Path 341" d="M74.416,67.8h3.42a.613.613,0,0,0,.616-.616V60.416a.613.613,0,0,0-.616-.616h-3.42a.613.613,0,0,0-.616.616v6.772A.613.613,0,0,0,74.416,67.8Zm.616-6.7h2.12v5.472h-2.12Z" transform="translate(-39.53 -35.107)" fill="#1a3b63"/>
        <path id="Path_342" data-name="Path 342" d="M61.712,53.6h3.42a.613.613,0,0,0,.616-.616V46.216a.613.613,0,0,0-.616-.616h-3.42a.613.613,0,0,0-.616.616v6.772C61.028,53.329,61.37,53.6,61.712,53.6Zm.616-6.7h2.12v5.472h-2.12Z" transform="translate(-35.513 -30.62)" fill="#1a3b63"/>
        <path id="Path_343" data-name="Path 343" d="M53.215,31.446a.616.616,0,1,0,1.231,0v-1.3h1.3a.616.616,0,1,0,0-1.231h-1.3v-1.3a.616.616,0,0,0-1.231,0v1.3h-1.3a.616.616,0,0,0,0,1.231h1.3Z" transform="translate(-32.421 -24.743)" fill="#1a3b63"/>
        <path id="Path_344" data-name="Path 344" d="M65.9,41.964a.613.613,0,0,0,.616-.616V39.091a.613.613,0,0,0-.616-.616H62.074a.616.616,0,1,0,0,1.231H65.22v1.026H56.191V39.706h2.736a.616.616,0,1,0,0-1.231H56.191V35.534h.958a.613.613,0,0,0,.616-.616V32.661a.613.613,0,0,0-.616-.616H51.54V24.316a.613.613,0,0,0-.616-.616H39.3a.613.613,0,0,0-.616.616v7.661H33.071a.613.613,0,0,0-.616.616V34.85a.613.613,0,0,0,.616.616h.958v2.941H24.316a.613.613,0,0,0-.616.616v2.257a.613.613,0,0,0,.616.616h.274V46a.616.616,0,0,0,1.231,0V41.9h8.14v21H25.889V49.214a.613.613,0,0,0-.616-.616.675.675,0,0,0-.684.616V62.895h-.274a.613.613,0,0,0-.616.616V65.9a.613.613,0,0,0,.616.616h41.52a.613.613,0,0,0,.616-.616V63.51a.613.613,0,0,0-.616-.616h-.205V41.964ZM33.687,33.276H43.4a.616.616,0,1,0,0-1.231H39.843V25h10.4v7.045H46.888a.616.616,0,0,0,0,1.231h9.576V34.3H33.687ZM25,39.706h9.029v1.026H25Zm10.26-4.173h19.7V62.895H51.335V52.976a.613.613,0,0,0-.616-.616H39.5a.613.613,0,0,0-.616.616v9.918H35.26Zm4.857,27.361v-9.3h4.378v9.3Zm5.609-9.3H50.1v9.3H45.726ZM65.22,65.22H25V64.126H65.289V65.22Zm-.889-2.326h-8.14V41.964h8.14V62.895Z" transform="translate(-23.7 -23.7)" fill="#1a3b63"/>
      </g>
    </g>
  </g>
</svg>
