<svg xmlns="http://www.w3.org/2000/svg" width="13.25" height="13.25" viewBox="0 0 13.25 13.25">
  <path id="Icon_ionic-ios-paper" data-name="Icon ionic-ios-paper" d="M5.8,4.394V14.65a.447.447,0,0,1-.446.446h0A.447.447,0,0,1,4.9,14.65V5.413h-.51A1.018,1.018,0,0,0,3.375,6.433v9.173a1.018,1.018,0,0,0,1.019,1.019H15.641a.985.985,0,0,0,.984-.984V4.394a1.018,1.018,0,0,0-1.019-1.019l-8.855.064A.913.913,0,0,0,5.8,4.394ZM7.9,5.413h2.676a.447.447,0,0,1,.446.446h0a.447.447,0,0,1-.446.446H7.9a.447.447,0,0,1-.446-.446h0A.447.447,0,0,1,7.9,5.413Zm0,5.1h4.714a.447.447,0,0,1,.446.446h0a.447.447,0,0,1-.446.446H7.9a.447.447,0,0,1-.446-.446h0A.447.447,0,0,1,7.9,10.51Zm6.243,3.44H7.9a.447.447,0,0,1-.446-.446h0a.447.447,0,0,1,.446-.446h6.243a.447.447,0,0,1,.446.446h0A.447.447,0,0,1,14.141,13.95Zm0-5.1H7.9a.447.447,0,0,1-.446-.446h0A.447.447,0,0,1,7.9,7.962h6.243a.447.447,0,0,1,.446.446h0A.447.447,0,0,1,14.141,8.853Z" transform="translate(-3.375 -3.375)" fill="#e6e6e6"/>
</svg>
